<svg width="459" height="328" viewBox="0 0 459 328" fill="none" xmlns="http://www.w3.org/2000/svg">
<g clip-path="url(#clip0)">
<path d="M459 121.454H266.065V126.943H459V121.454Z" fill="#E6E6E6"/>
<path d="M330.891 75.5454H282.015V122.951H330.891V75.5454Z" fill="#E6E6E6"/>
<path d="M321.116 85.0265H291.79V113.47H321.116V85.0265Z" fill="#CCCCCC"/>
<path d="M403.95 75.5454H391.602V122.951H403.95V75.5454Z" fill="#E6E6E6"/>
<path d="M403.95 83.0305H391.602V88.5195H403.95V83.0305Z" fill="#CCCCCC"/>
<path d="M403.95 106.983H391.602V112.472H403.95V106.983Z" fill="#CCCCCC"/>
<path d="M384.914 75.5454H372.565V122.951H384.914V75.5454Z" fill="#E6E6E6"/>
<path d="M384.914 83.0305H372.565V88.5195H384.914V83.0305Z" fill="#CCCCCC"/>
<path d="M384.914 106.983H372.565V112.472H384.914V106.983Z" fill="#CCCCCC"/>
<path d="M414.589 75.3493L403.523 80.6631L425.209 123.147L436.275 117.833L414.589 75.3493Z" fill="#E6E6E6"/>
<path d="M418.013 82.0573L406.947 87.3711L409.458 92.2903L420.524 86.9765L418.013 82.0573Z" fill="#CCCCCC"/>
<path d="M428.97 103.523L417.904 108.837L420.415 113.756L431.481 108.442L428.97 103.523Z" fill="#CCCCCC"/>
<path d="M300.279 94.5739L306.498 105.02L312.716 115.466H300.279H287.843L294.061 105.02L300.279 94.5739Z" fill="#E6E6E6"/>
<path d="M311.083 96.5699L317.301 107.016L323.52 117.462H311.083H298.647L304.865 107.016L311.083 96.5699Z" fill="#E6E6E6"/>
<path d="M315.457 93.5095C317.446 93.5095 319.058 91.9456 319.058 90.0165C319.058 88.0874 317.446 86.5235 315.457 86.5235C313.468 86.5235 311.855 88.0874 311.855 90.0165C311.855 91.9456 313.468 93.5095 315.457 93.5095Z" fill="#E6E6E6"/>
<path d="M266.065 51.5933L459 51.5933V46.1042L266.065 46.1042V51.5933Z" fill="#E6E6E6"/>
<path d="M394.174 47.6013L443.051 47.6013V0.19603L394.174 0.19603V47.6013Z" fill="#E6E6E6"/>
<path d="M403.949 38.1202H433.275V9.67708L403.949 9.67708V38.1202Z" fill="#CCCCCC"/>
<path d="M321.116 47.6013H333.464V0.19603H321.116V47.6013Z" fill="#E6E6E6"/>
<path d="M321.116 13.1701L333.464 13.1701V7.68111L321.116 7.68111V13.1701Z" fill="#CCCCCC"/>
<path d="M321.116 37.1222H333.464V31.6332H321.116V37.1222Z" fill="#CCCCCC"/>
<path d="M340.152 47.6013H352.5V0.19603H340.152V47.6013Z" fill="#E6E6E6"/>
<path d="M340.152 13.1701L352.5 13.1701V7.68111L340.152 7.68111V13.1701Z" fill="#CCCCCC"/>
<path d="M340.152 37.1222H352.5V31.6332H340.152V37.1222Z" fill="#CCCCCC"/>
<path d="M288.79 42.4835L299.857 47.7973L321.543 5.31337L310.477 -0.000437536L288.79 42.4835Z" fill="#E6E6E6"/>
<path d="M304.541 11.627L315.608 16.9408L318.119 12.0216L307.053 6.7078L304.541 11.627Z" fill="#CCCCCC"/>
<path d="M293.584 33.0924L304.65 38.4062L307.161 33.487L296.095 28.1732L293.584 33.0924Z" fill="#CCCCCC"/>
<path d="M424.786 19.2243L418.568 29.6702L412.35 40.116H424.786H437.223L431.004 29.6702L424.786 19.2243Z" fill="#E6E6E6"/>
<path d="M413.982 21.2204L407.764 31.6662L401.546 42.1121H413.982H426.418L420.2 31.6662L413.982 21.2204Z" fill="#E6E6E6"/>
<path d="M409.609 18.1601C411.598 18.1601 413.21 16.5963 413.21 14.6671C413.21 12.738 411.598 11.1741 409.609 11.1741C407.62 11.1741 406.007 12.738 406.007 14.6671C406.007 16.5963 407.62 18.1601 409.609 18.1601Z" fill="#E6E6E6"/>
<path d="M266.065 202.292L459 202.292V196.803L266.065 196.803V202.292Z" fill="#E6E6E6"/>
<path d="M394.174 198.3H443.051V150.895H394.174V198.3Z" fill="#E6E6E6"/>
<path d="M403.949 188.819H433.275V160.376H403.949V188.819Z" fill="#CCCCCC"/>
<path d="M321.116 198.3H333.464V150.895H321.116V198.3Z" fill="#E6E6E6"/>
<path d="M321.116 163.869H333.464V158.38H321.116V163.869Z" fill="#CCCCCC"/>
<path d="M321.116 187.821H333.464V182.332H321.116V187.821Z" fill="#CCCCCC"/>
<path d="M340.152 198.3H352.5V150.895H340.152V198.3Z" fill="#E6E6E6"/>
<path d="M340.152 163.869H352.5V158.38H340.152V163.869Z" fill="#CCCCCC"/>
<path d="M340.152 187.821H352.5V182.332H340.152V187.821Z" fill="#CCCCCC"/>
<path d="M288.79 193.182L299.857 198.496L321.543 156.012L310.477 150.698L288.79 193.182Z" fill="#E6E6E6"/>
<path d="M304.541 162.326L315.608 167.64L318.119 162.72L307.053 157.407L304.541 162.326Z" fill="#CCCCCC"/>
<path d="M293.584 183.791L304.65 189.105L307.162 184.186L296.095 178.872L293.584 183.791Z" fill="#CCCCCC"/>
<path d="M424.786 169.923L418.568 180.369L412.35 190.815H424.786H437.223L431.004 180.369L424.786 169.923Z" fill="#E6E6E6"/>
<path d="M413.982 171.919L407.764 182.365L401.546 192.811H413.982H426.418L420.2 182.365L413.982 171.919Z" fill="#E6E6E6"/>
<path d="M409.609 168.859C411.598 168.859 413.21 167.295 413.21 165.366C413.21 163.437 411.598 161.873 409.609 161.873C407.62 161.873 406.007 163.437 406.007 165.366C406.007 167.295 407.62 168.859 409.609 168.859Z" fill="#E6E6E6"/>
<path d="M227.277 328C352.799 328 454.554 320.991 454.554 312.344C454.554 303.698 352.799 296.688 227.277 296.688C101.755 296.688 0 303.698 0 312.344C0 320.991 101.755 328 227.277 328Z" fill="#E6E6E6"/>
<path d="M404.837 321.111C367.778 314.714 327.252 315.777 284.742 321.111C304.118 305.247 320.84 289.382 301.464 273.518C339.259 281.08 344.552 280.314 386.595 273.518C376.843 289.382 395.086 305.247 404.837 321.111Z" fill="#6C63FF"/>
<path opacity="0.2" d="M404.837 321.111C367.778 314.714 327.252 315.777 284.742 321.111C304.118 305.247 320.84 289.382 301.464 273.518C339.259 281.08 344.552 280.314 386.595 273.518C376.843 289.382 395.086 305.247 404.837 321.111Z" fill="black"/>
<path d="M395.798 314.343C364.317 309.236 329.892 310.085 293.781 314.343C310.24 301.679 324.445 289.016 307.986 276.353C340.091 282.389 344.588 281.778 380.302 276.353C372.018 289.016 387.514 301.679 395.798 314.343Z" fill="#6C63FF"/>
<path d="M307.663 258.801L319.286 260.68L325.097 276.962L308.309 286.982L288.939 258.801H307.018H307.663Z" fill="#FFB8B8"/>
<path d="M340.593 283.851C355.57 283.851 367.711 272.075 367.711 257.549C367.711 243.023 355.57 231.247 340.593 231.247C325.616 231.247 313.475 243.023 313.475 257.549C313.475 272.075 325.616 283.851 340.593 283.851Z" fill="#FFB8B8"/>
<path d="M190.797 161.735C190.797 161.735 124.938 168.623 113.316 167.371C101.694 166.118 96.5282 164.866 96.5282 164.866C96.5282 164.866 88.7801 174.886 92.6542 179.269C94.8238 181.795 97.4493 183.917 100.402 185.532C100.402 185.532 107.505 183.653 112.67 185.532C117.836 187.41 170.135 195.551 179.175 188.036C188.214 180.522 190.797 161.735 190.797 161.735Z" fill="#2F2E41"/>
<path d="M195.316 301.385C195.316 301.385 152.056 289.487 144.308 236.883V231.873C144.308 231.873 135.749 246.437 132.686 249.408C129.135 252.852 116.544 283.85 117.19 286.982C117.835 290.113 117.19 291.365 117.19 291.365L98.4652 289.487V283.85C98.4652 283.85 108.473 254.731 109.119 247.842C109.765 240.953 133.977 193.046 133.977 193.046C133.977 193.046 143.017 174.886 158.513 193.046C174.009 211.207 175.3 223.732 175.3 223.732L195.316 261.306L195.316 301.385Z" fill="#2F2E41"/>
<path d="M98.4652 162.987L77.8037 156.099C77.8037 156.099 58.4335 142.321 62.9532 156.099C67.4729 169.876 88.1345 199.935 93.9455 196.804C99.7566 193.673 106.745 185.9 105.188 184.777C103.631 183.653 93.2998 175.512 98.4652 162.987Z" fill="#2F2E41"/>
<path d="M100.963 280.153L84.2837 288.054C84.2837 288.054 64.1137 291.063 75.3624 296.706C86.611 302.349 117.642 308.369 119.193 303.102C120.745 297.835 120.129 289.094 118.498 289.326C116.866 289.558 105.617 290.687 100.963 280.153Z" fill="#2F2E41"/>
<path d="M186.923 260.054C186.923 260.054 178.529 295.123 192.734 302.638C206.938 310.152 306.372 311.405 314.12 297.628C321.868 283.85 317.994 283.85 317.994 283.85L297.333 261.306L314.12 260.054C314.12 260.054 314.12 255.044 308.309 254.417C302.498 253.791 284.419 247.529 268.923 251.912C253.427 256.296 244.387 243.145 244.387 243.145L186.923 260.054Z" fill="#575A89"/>
<path d="M175.946 150.462L164.969 208.703L240.514 199.935L254.073 147.331L175.946 150.462Z" fill="#3F3D56"/>
<path d="M178.206 152.654L169.167 204.632L237.931 196.804L251.167 149.523L178.206 152.654Z" fill="white"/>
<path d="M167.552 209.329L164.969 208.702L163.678 211.207L184.34 266.942L186.283 266.222L186.922 262.559L167.552 209.329Z" fill="#B3B3B3"/>
<path d="M164.969 208.076L185.631 266.316L263.758 255.044L240.514 199.935L164.969 208.076Z" fill="#D0CDE1"/>
<path d="M175.301 206.197V209.329L232.765 203.066L232.12 199.935L175.301 206.197Z" fill="#3F3D56"/>
<path d="M176.592 212.46L185.631 236.883L244.388 229.994L234.057 206.824L176.592 212.46Z" fill="#3F3D56"/>
<path d="M250.199 246.903L248.262 241.893C248.262 241.893 233.411 216.843 225.663 221.853C217.915 226.863 241.805 251.286 241.805 251.286H249.553L250.199 246.903Z" fill="#FFB8B8"/>
<path d="M201.127 250.66L199.19 243.145C199.19 243.145 194.025 219.974 203.064 221.227C212.104 222.479 214.687 244.398 214.687 244.398L214.041 249.407L201.127 250.66Z" fill="#FFB8B8"/>
<path d="M216.624 247.529C216.624 247.529 199.836 245.024 199.19 248.781C198.545 252.539 195.316 308.9 211.458 310.779C227.6 312.657 307.664 320.798 299.27 301.385C290.876 281.972 277.963 284.477 277.963 284.477L223.08 290.113L216.624 247.529Z" fill="#575A89"/>
<path d="M267.309 254.731L250.199 243.145L238.899 251.599L253.104 266.629L267.309 254.731Z" fill="#575A89"/>
<path opacity="0.2" d="M221.466 269.003L224.049 292.8L268.6 290.295L229.86 289.669L221.466 269.003Z" fill="black"/>
<path d="M353.979 293.639C371.809 293.639 386.263 279.621 386.263 262.328C386.263 245.035 371.809 231.016 353.979 231.016C336.15 231.016 321.696 245.035 321.696 262.328C321.696 279.621 336.15 293.639 353.979 293.639Z" fill="#2F2E41"/>
<path d="M187.891 170.815L227.923 169.463L231.797 155.159L190.474 156.369L187.891 170.815Z" fill="#6C63FF"/>
<path d="M177.561 178.956L238.254 177.077L238.899 174.572L178.206 176.645L177.561 178.956Z" fill="#E6E6E6"/>
<path d="M176.269 185.219L236.963 183.34L237.608 180.835L176.915 182.907L176.269 185.219Z" fill="#E6E6E6"/>
<path d="M175.623 190.228L236.316 188.35L236.963 185.845L176.269 187.917L175.623 190.228Z" fill="#E6E6E6"/>
</g>
<defs>
<clipPath id="clip0">
<rect width="459" height="328" fill="white"/>
</clipPath>
</defs>
</svg>
