<svg width="367" height="292" viewBox="0 0 367 292" fill="none" xmlns="http://www.w3.org/2000/svg">
<g clip-path="url(#clip0)">
<path d="M341.786 119.975H0V292H341.786V119.975Z" fill="#6C63FF"/>
<path d="M285.281 189.662H56.505V292H285.281V189.662Z" fill="#F0F0F0"/>
<path d="M285.281 195.907H56.505V196.881H285.281V195.907Z" fill="#3F3D56"/>
<path d="M60.6288 194.807C61.5375 194.807 62.2741 194.026 62.2741 193.062C62.2741 192.098 61.5375 191.317 60.6288 191.317C59.7202 191.317 58.9836 192.098 58.9836 193.062C58.9836 194.026 59.7202 194.807 60.6288 194.807Z" fill="#3F3D56"/>
<path d="M66.2697 194.807C67.1784 194.807 67.915 194.026 67.915 193.062C67.915 192.098 67.1784 191.317 66.2697 191.317C65.3611 191.317 64.6245 192.098 64.6245 193.062C64.6245 194.026 65.3611 194.807 66.2697 194.807Z" fill="#3F3D56"/>
<path d="M71.9106 194.807C72.8192 194.807 73.5558 194.026 73.5558 193.062C73.5558 192.098 72.8192 191.317 71.9106 191.317C71.0019 191.317 70.2653 192.098 70.2653 193.062C70.2653 194.026 71.0019 194.807 71.9106 194.807Z" fill="#3F3D56"/>
<path d="M182.856 241.895L185.292 247.13L190.738 247.969L186.797 252.044L187.727 257.798L182.856 255.082L177.985 257.798L178.915 252.044L174.974 247.969L180.42 247.13L182.856 241.895Z" fill="#6C63FF"/>
<path d="M204.769 241.895L207.205 247.13L212.651 247.969L208.71 252.044L209.64 257.798L204.769 255.082L199.898 257.798L200.828 252.044L196.887 247.969L202.334 247.13L204.769 241.895Z" fill="#6C63FF"/>
<path d="M226.682 241.895L229.118 247.13L234.564 247.969L230.623 252.044L231.554 257.798L226.682 255.082L221.811 257.798L222.741 252.044L218.801 247.969L224.247 247.13L226.682 241.895Z" fill="#6C63FF"/>
<path d="M248.596 241.895L251.031 247.13L256.477 247.969L252.536 252.044L253.467 257.798L248.596 255.082L243.724 257.798L244.655 252.044L240.714 247.969L246.16 247.13L248.596 241.895Z" fill="#6C63FF"/>
<path d="M270.509 241.895L272.944 247.13L278.391 247.969L274.449 252.044L275.38 257.798L270.509 255.082L265.637 257.798L266.568 252.044L262.627 247.969L268.073 247.13L270.509 241.895Z" fill="#6C63FF"/>
<path d="M161.246 219.876H72.1243V279.817H161.246V219.876Z" fill="#3F3D56"/>
<path opacity="0.1" d="M90.2978 119.975L0 185.734V152.046L44.0372 119.975H90.2978Z" fill="black"/>
<path opacity="0.1" d="M192.994 119.975L0 260.524V226.83L146.734 119.975H192.994Z" fill="black"/>
<path d="M52.2069 169.02L46.0211 161.985L52.653 155.423L58.8387 162.458L52.2069 169.02ZM47.0071 162.021L52.2412 167.974L57.8528 162.422L52.6187 156.469L47.0071 162.021Z" fill="#F0F0F0"/>
<path d="M256.34 164.595H247.271V154.975H256.34V164.595ZM247.968 163.855H255.642V155.715H247.968V163.855Z" fill="#3F3D56"/>
<path d="M312.528 246.696C315.085 246.696 317.158 244.497 317.158 241.784C317.158 239.072 315.085 236.873 312.528 236.873C309.971 236.873 307.898 239.072 307.898 241.784C307.898 244.497 309.971 246.696 312.528 246.696Z" fill="#F0F0F0"/>
<path d="M312.528 255.973C309.882 255.973 307.296 255.141 305.097 253.582C302.897 252.023 301.183 249.807 300.17 247.214C299.158 244.622 298.893 241.769 299.409 239.016C299.925 236.264 301.199 233.736 303.07 231.751C304.94 229.767 307.324 228.416 309.918 227.868C312.513 227.321 315.202 227.602 317.646 228.676C320.09 229.75 322.179 231.568 323.649 233.902C325.119 236.235 325.903 238.978 325.903 241.785C325.899 245.546 324.489 249.153 321.981 251.813C319.474 254.473 316.074 255.969 312.528 255.973ZM312.528 228.687C310.086 228.687 307.699 229.455 305.668 230.894C303.638 232.334 302.055 234.379 301.121 236.772C300.186 239.166 299.942 241.799 300.418 244.34C300.895 246.88 302.071 249.214 303.797 251.046C305.524 252.878 307.724 254.125 310.119 254.63C312.514 255.136 314.997 254.876 317.253 253.885C319.509 252.894 321.437 251.215 322.794 249.061C324.15 246.907 324.874 244.375 324.874 241.785C324.871 238.312 323.569 234.983 321.254 232.528C318.939 230.072 315.801 228.691 312.528 228.687Z" fill="#2F2E41"/>
<path d="M105.2 266.677C107.327 275.017 114.612 280.182 114.612 280.182C114.612 280.182 118.448 271.825 116.321 263.486C114.195 255.146 106.91 249.981 106.91 249.981C106.91 249.981 103.074 258.337 105.2 266.677Z" fill="white"/>
<path d="M108.326 264.885C114.161 270.911 114.874 280.175 114.874 280.175C114.874 280.175 106.125 279.668 100.289 273.642C94.4534 267.615 93.7406 258.351 93.7406 258.351C93.7406 258.351 102.49 258.858 108.326 264.885Z" fill="#6C63FF"/>
<path d="M124.548 266.677C122.421 275.017 115.137 280.182 115.137 280.182C115.137 280.182 111.3 271.825 113.427 263.486C115.554 255.146 122.838 249.981 122.838 249.981C122.838 249.981 126.675 258.337 124.548 266.677Z" fill="white"/>
<path d="M121.423 264.885C115.587 270.911 114.874 280.175 114.874 280.175C114.874 280.175 123.623 279.668 129.459 273.642C135.295 267.615 136.008 258.351 136.008 258.351C136.008 258.351 127.259 258.858 121.423 264.885Z" fill="#6C63FF"/>
<path d="M296.612 9.28711H260.542V53.8651H296.612V9.28711Z" fill="#F2F2F2"/>
<path d="M284.348 120.49L283.847 119.971C286.152 117.199 287.899 113.956 288.982 110.442C290.686 105.003 291.518 96.4116 285.806 86.3763C279.962 76.1086 279.699 67.7689 280.508 62.5808C281.387 56.9357 283.632 53.7713 283.727 53.6395L284.283 54.0906C284.261 54.1216 282.036 57.269 281.192 62.7459C280.412 67.8023 280.684 75.9399 286.406 85.9921C292.264 96.2841 291.396 105.114 289.636 110.708C287.73 116.77 284.486 120.341 284.348 120.49Z" fill="#3F3D56"/>
<path d="M310.619 54.2366H260.192V0.742981H310.619V54.2366ZM260.892 53.4936H309.919V1.48595H260.892V53.4936Z" fill="#3F3D56"/>
<path d="M301.514 16.3453H270.698V17.0882H301.514V16.3453Z" fill="#3F3D56"/>
<path d="M301.514 24.5179H270.698V25.2608H301.514V24.5179Z" fill="#3F3D56"/>
<path d="M301.514 32.6906H270.698V33.4335H301.514V32.6906Z" fill="#3F3D56"/>
<path d="M352.992 41.6061H316.923V86.1842H352.992V41.6061Z" fill="#F2F2F2"/>
<path d="M340.729 152.809L340.228 152.29C342.533 149.518 344.28 146.275 345.362 142.761C347.066 137.322 347.899 128.731 342.187 118.695C336.343 108.428 336.08 100.088 336.888 94.8999C337.768 89.2547 340.012 86.0904 340.107 85.9585L340.664 86.4096C340.641 86.4406 338.417 89.5881 337.572 95.0649C336.793 100.121 337.065 108.259 342.786 118.311C348.644 128.603 347.776 137.433 346.017 143.027C344.111 149.089 340.866 152.66 340.729 152.809Z" fill="#3F3D56"/>
<path d="M367 86.5556H316.573V33.062H367V86.5556ZM317.273 85.8126H366.3V33.805H317.273V85.8126Z" fill="#3F3D56"/>
<path d="M357.895 48.6643H327.078V49.4073H357.895V48.6643Z" fill="#3F3D56"/>
<path d="M357.895 56.837H327.078V57.5799H357.895V56.837Z" fill="#3F3D56"/>
<path d="M357.895 65.0096H327.078V65.7525H357.895V65.0096Z" fill="#3F3D56"/>
<path d="M84.7462 8.54413H48.6765V53.1222H84.7462V8.54413Z" fill="#F2F2F2"/>
<path d="M72.4829 119.747L71.9817 119.228C74.2867 116.456 76.0339 113.213 77.1162 109.699C78.8202 104.26 79.6525 95.6686 73.9407 85.6333C68.0967 75.3656 67.8338 67.0259 68.642 61.8378C69.5218 56.1927 71.7661 53.0284 71.8611 52.8965L72.4177 53.3476C72.3953 53.3786 70.1705 56.5261 69.3264 62.0029C68.547 67.0593 68.8189 75.1969 74.5402 85.2491C80.3981 95.5411 79.5303 104.371 77.7709 109.965C75.8645 116.027 72.6202 119.598 72.4829 119.747Z" fill="#3F3D56"/>
<path d="M98.7538 53.4936H48.3263V0H98.7538V53.4936ZM49.0267 52.7507H98.0534V0.742967H49.0267V52.7507Z" fill="#3F3D56"/>
<path d="M89.6489 15.6023H58.8321V16.3453H89.6489V15.6023Z" fill="#3F3D56"/>
<path d="M89.6489 23.775H58.8321V24.5179H89.6489V23.775Z" fill="#3F3D56"/>
<path d="M89.6489 31.9476H58.8321V32.6905H89.6489V31.9476Z" fill="#3F3D56"/>
<path d="M164.401 136.022L166.837 141.257L172.283 142.097L168.342 146.172L169.272 151.926L164.401 149.209L159.529 151.926L160.46 146.172L156.519 142.097L161.965 141.257L164.401 136.022Z" fill="#F0F0F0"/>
<path d="M173.205 17.9838H173.205C181.621 17.9838 188.443 26.0155 188.443 35.923V48.5107H184.794L182.681 43.8469L183.209 48.5107H159.752L157.831 44.2708L158.311 48.5107H155.67V38.6271C155.67 27.2262 163.521 17.9838 173.205 17.9838Z" fill="#2F2E41"/>
<path d="M190.666 100.225L200.022 104.443L232.534 132.481C233.73 134.039 234.462 135.939 234.639 137.94C234.873 141.165 244.697 158.038 241.188 160.271C237.68 162.504 225.049 169.203 224.347 164.737C223.646 160.271 219.903 141.165 219.903 141.165L188.56 111.39L190.666 100.225Z" fill="#2F2E41"/>
<path d="M227.388 161.015L231.365 173.421C231.365 173.421 227.154 178.136 229.259 182.106V195.753H232.534L233.47 188.557C233.47 188.557 237.199 195.662 239.083 195.753C243.032 195.943 250.853 197.433 251.087 195.2C251.321 192.967 245.165 190.79 245.165 190.79L238.615 171.685L235.809 160.023L227.388 161.015Z" fill="#2F2E41"/>
<path d="M166.34 96.9992C166.34 96.9992 164.235 118.834 170.316 122.804C176.398 126.774 203.296 139.428 203.296 139.428C203.296 139.428 191.835 150.842 194.174 153.571C196.513 156.301 207.039 163.745 208.442 162.256C209.846 160.767 225.517 142.902 223.646 137.195C221.775 131.488 195.811 112.879 195.811 112.879L192.771 101.217L191.835 91.7886L182.011 85.0893L166.34 96.9992Z" fill="#2F2E41"/>
<path d="M177.056 46.162C182.441 46.162 186.807 41.5309 186.807 35.8182C186.807 30.1054 182.441 25.4743 177.056 25.4743C171.671 25.4743 167.305 30.1054 167.305 35.8182C167.305 41.5309 171.671 46.162 177.056 46.162Z" fill="#FFB9B9"/>
<path d="M169.497 40.0547C169.497 40.0547 169.965 49.4835 162.714 52.4609C155.463 55.4384 180.725 74.7921 180.725 74.7921V53.2053C180.725 53.2053 177.45 49.4835 180.725 43.7766L169.497 40.0547Z" fill="#FFB9B9"/>
<path d="M153.943 84.3448L155.814 94.0217L161.428 127.27C161.428 127.27 156.75 141.413 163.065 141.165C169.38 140.917 166.34 125.782 166.34 125.782L163.065 98.2398V87.5705L153.943 84.3448Z" fill="#FFB9B9"/>
<path d="M194.174 79.6305L196.279 88.3148L205.869 112.879C205.869 112.879 212.418 124.541 207.039 124.293C201.659 124.045 201.659 112.879 201.659 112.879L190.666 93.0292V81.8636L194.174 79.6305Z" fill="#FFB9B9"/>
<path d="M195.811 152.083L188.093 159.775C188.093 159.775 182.713 158.534 180.608 165.233C178.503 171.933 177.099 176.151 177.099 176.151L179.906 177.888L183.415 172.677C183.415 172.677 185.52 182.106 187.625 182.85C189.73 183.594 200.256 188.557 199.32 182.85L194.174 174.91C194.174 174.91 193.472 165.978 195.578 165.233C197.683 164.489 203.296 157.045 203.296 157.045L195.811 152.083Z" fill="#2F2E41"/>
<path d="M165.969 104.691C165.969 104.691 187.956 96.2548 189.359 96.9992C190.404 97.4888 191.516 97.7951 192.654 97.9063L192.634 94.518C192.634 94.518 185.383 91.7886 181.406 93.5255C177.43 95.2623 165.267 102.954 165.267 102.954L165.969 104.691Z" fill="#3F3D56"/>
<path d="M179.321 69.8296C179.321 69.8296 173.006 62.1378 171.135 57.4234C169.951 54.5654 167.778 52.2987 165.064 51.0911C165.064 51.0911 151.019 54.4459 151.253 60.4009C151.487 66.3559 160.141 75.5365 160.141 75.5365C160.141 75.5365 158.972 108.537 165.287 108.041C166.649 106.316 167.611 104.276 168.094 102.086C168.796 98.612 190.549 94.8901 190.549 94.8901C190.549 94.8901 192.42 98.3639 192.654 96.8751C192.888 95.3864 190.783 58.9122 190.783 58.9122L179.628 51.0911L179.321 69.8296Z" fill="#D0CDE1"/>
<path d="M153.055 58.004L152.898 58.0972C152.398 58.3948 151.982 58.8283 151.693 59.353C151.403 59.8778 151.25 60.4749 151.25 61.083L151.253 79.497C151.251 79.9975 151.147 80.4916 150.947 80.9451C150.747 81.3985 150.457 81.8004 150.096 82.1229C149.195 82.9359 148.359 84.1074 150.084 84.7171C152.89 85.7096 163.884 90.6721 164.118 88.9352C164.352 87.1983 164.819 85.2133 164.118 85.2133C163.568 85.2133 160.295 67.4208 157.665 59.8134C157.505 59.3477 157.251 58.9245 156.921 58.5732C156.591 58.2219 156.193 57.9508 155.754 57.7788C155.316 57.6067 154.847 57.5377 154.381 57.5766C153.915 57.6155 153.463 57.7613 153.055 58.004Z" fill="#D0CDE1"/>
<path d="M187.625 58.0438L190.899 59.0363L194.642 76.1568C194.642 76.1568 199.086 77.1493 197.683 78.8862C196.279 80.623 190.432 85.0893 190.432 85.0893L187.625 58.0438Z" fill="#D0CDE1"/>
<path d="M168.873 22.9255C169.607 21.881 170.557 21.0297 171.651 20.4377C172.744 19.8457 173.951 19.529 175.179 19.512H175.478C181.246 19.512 185.922 25.0489 185.922 31.8791V31.8791H183.99L183.678 29.3588L183.22 31.8791H171.757L170.796 29.7468L171.036 31.8791H168.781C167.729 37.423 169.241 42.9668 173.317 48.5107H169.476L167.555 44.2462L168.035 48.5107H160.712L159.272 38.7023C159.272 31.3567 163.295 25.1278 168.873 22.9255Z" fill="#2F2E41"/>
</g>
<defs>
<clipPath id="clip0">
<rect width="367" height="292" fill="white"/>
</clipPath>
</defs>
</svg>
