<svg width="273" height="180" viewBox="0 0 273 180" fill="none" xmlns="http://www.w3.org/2000/svg">
<g clip-path="url(#clip0)">
<path d="M189.149 81.433L190.846 80.7683C191.009 80.7043 191.169 80.6354 191.339 80.5689C188.197 79.4132 185.543 77.2237 183.812 74.3606C182.081 71.4974 181.376 68.1309 181.814 64.8147C182.253 61.4985 183.807 58.4299 186.222 56.1135C188.637 53.7971 191.77 52.3707 195.104 52.069L193.921 58.0265L198.41 52.1379H198.45C202.325 52.6702 205.83 54.7185 208.194 57.8324C210.558 60.9462 211.587 64.8706 211.055 68.7426C211.018 69.0208 210.959 69.2915 210.907 69.5648C212.29 68.4742 213.586 67.2704 214.556 65.8721C216.527 63.0313 217.195 59.5306 217.875 55.2447C219.223 46.7565 220.438 38.1747 221.532 29.5979C218.172 28.5853 215.285 26.4087 213.388 23.4593C211.491 20.51 210.709 16.9814 211.183 13.5078C211.245 13.0597 211.331 12.624 211.43 12.1932C211.454 12.0848 211.479 11.9765 211.506 11.8707C211.612 11.4546 211.73 11.046 211.868 10.6398C211.89 10.5733 211.92 10.5118 211.942 10.4478C212.065 10.1105 212.188 9.77816 212.349 9.46306C212.403 9.33997 212.457 9.21688 212.514 9.10118C212.684 8.74914 212.864 8.4045 213.061 8.06969C213.127 7.95891 213.199 7.85306 213.265 7.74228C213.418 7.4961 213.578 7.24992 213.743 7.02098C213.832 6.89789 213.918 6.7748 214.009 6.65417L214.076 6.55816C216.168 3.82233 219.153 1.90551 222.513 1.14093C225.873 0.376343 229.395 0.81235 232.466 2.37315L230.929 10.1253L235.364 4.30564C237.749 6.32494 239.426 9.05338 240.15 12.0925C240.873 15.1316 240.605 18.3222 239.385 21.1983H239.402C239.36 21.2968 239.309 21.3904 239.267 21.4888C239.185 21.671 239.102 21.8507 239.02 22.0304C238.907 22.2594 238.774 22.4834 238.663 22.7049C238.569 22.8723 238.478 23.0397 238.377 23.1973C238.232 23.4435 238.074 23.665 237.917 23.894C237.823 24.0269 237.737 24.1648 237.641 24.2952C237.394 24.6374 237.118 24.9649 236.837 25.28C236.739 25.3907 236.633 25.4917 236.529 25.6C236.33 25.8117 236.13 26.021 235.918 26.2204C235.788 26.3434 235.65 26.4665 235.514 26.5798C235.32 26.7521 235.12 26.9195 234.915 27.0721C234.77 27.1878 234.622 27.2986 234.474 27.4069C234.26 27.562 234.043 27.7073 233.824 27.8525C233.676 27.9485 233.528 28.0445 233.378 28.1356C233.132 28.2858 232.873 28.4236 232.614 28.559C232.484 28.6255 232.368 28.6994 232.222 28.7634C231.833 28.9529 231.434 29.1277 231.027 29.2828C230.951 29.3123 230.87 29.3345 230.793 29.3616C230.453 29.4847 230.111 29.6078 229.763 29.6939C229.613 29.7358 229.46 29.7702 229.308 29.8072C229.024 29.8761 228.738 29.9401 228.45 29.9943C228.286 30.0238 228.116 30.0509 227.94 30.0755C227.657 30.1173 227.371 30.1493 227.083 30.174C226.913 30.1887 226.745 30.2035 226.573 30.2134C226.262 30.2281 225.949 30.2306 225.636 30.2281C225.616 30.2269 225.595 30.2269 225.575 30.2281C225.112 33.8387 224.625 37.4493 224.116 41.0599C225.311 39.4482 226.823 38.0973 228.559 37.0902C230.295 36.083 232.219 35.4408 234.212 35.2029C236.205 34.965 238.226 35.1365 240.151 35.7068C242.075 36.2771 243.863 37.2342 245.404 38.5194L241.541 45.0628L247.752 40.9787C250.101 44.0843 251.12 47.9942 250.586 51.8499C250.404 53.2037 250.03 54.5248 249.477 55.774C248.291 58.4787 246.319 60.7648 243.817 62.3358C241.315 63.9068 238.398 64.69 235.444 64.5839C232.491 64.4777 229.637 63.4871 227.255 61.7405C224.872 59.9939 223.069 57.5721 222.081 54.7892C222.024 55.1536 221.97 55.5278 221.913 55.8872C221.312 59.666 220.566 64.3705 217.915 68.1961C216.118 70.7957 213.645 72.7159 211.24 74.4047C209.676 75.5042 208.076 76.5522 206.44 77.5483C204.723 79.1394 202.651 80.2988 200.396 80.9308C197.768 82.275 195.083 83.4902 192.342 84.5767L190.629 85.2463C189.089 85.847 187.513 86.4624 185.948 87.1173C186.194 87.1394 186.441 87.1591 186.687 87.1911C189.787 87.6165 192.672 89.0154 194.925 91.1859C197.177 93.3563 198.681 96.186 199.219 99.2661L188.794 104.955L199.186 104.49C198.77 106.793 197.805 108.961 196.373 110.812C194.023 113.851 190.578 115.854 186.772 116.394C182.966 116.934 179.1 115.968 175.996 113.702L176.514 114.665C176.859 115.3 177.199 115.932 177.529 116.56C182.045 125.112 182.373 132.498 178.453 137.36L175.25 134.787C179.066 130.056 176.038 122.535 173.895 118.473C173.569 117.857 173.234 117.242 172.909 116.612C170.009 111.238 166.72 105.147 168.038 98.6655C170.009 88.8922 180.616 84.7564 189.149 81.433Z" fill="#F2F2F2"/>
<path d="M66.4268 127.769L65.1012 127.249C64.973 127.2 64.8548 127.143 64.7217 127.094C67.1744 126.19 69.2465 124.48 70.5975 122.244C71.9485 120.008 72.498 117.379 72.1557 114.789C71.8135 112.2 70.5999 109.804 68.7143 107.995C66.8287 106.186 64.3833 105.071 61.7798 104.835L62.7038 109.487L59.2001 104.889H59.1681C57.6686 105.093 56.224 105.591 54.9171 106.354C53.6102 107.116 52.4664 108.129 51.5511 109.333C50.6359 110.537 49.9671 111.91 49.583 113.373C49.1989 114.835 49.107 116.359 49.3125 117.857C49.3421 118.077 49.3889 118.286 49.4283 118.5C48.3413 117.683 47.3814 116.71 46.58 115.612C45.045 113.397 44.5178 110.659 43.9856 107.314C42.9433 100.684 41.9972 93.9832 41.1471 87.292C43.7696 86.5 46.0234 84.7993 47.5033 82.4958C48.9833 80.1922 49.5925 77.4368 49.2213 74.7247C49.1721 74.3751 49.1055 74.0354 49.0267 73.6981L48.9676 73.452C48.8838 73.127 48.7926 72.807 48.6842 72.4968C48.667 72.4451 48.6448 72.3959 48.6251 72.3466C48.529 72.0832 48.423 71.8247 48.3097 71.5712C48.2654 71.4776 48.2235 71.3816 48.1791 71.2881C48.0461 71.0148 47.9056 70.7465 47.7529 70.4855C47.7011 70.3969 47.6444 70.3132 47.5927 70.2393C47.472 70.0473 47.3463 69.8578 47.2182 69.6756C47.1492 69.5796 47.0827 69.4811 47.0112 69.3876L46.9595 69.3137C45.3256 67.1774 42.9949 65.6798 40.3716 65.0809C37.7482 64.4819 34.9978 64.8194 32.5974 66.0346L33.7998 72.0906L30.3331 67.5462C28.4703 69.1233 27.1607 71.2541 26.5956 73.6274C26.0304 76.0007 26.2393 78.4924 27.1916 80.7388H27.1793C27.2113 80.8151 27.2508 80.889 27.2853 80.9653C27.3493 81.1081 27.4134 81.2484 27.4824 81.3887C27.5711 81.566 27.6647 81.7407 27.7632 81.9131C27.8347 82.046 27.9062 82.1765 27.985 82.3045C28.0983 82.4891 28.2314 82.6688 28.3447 82.8485C28.4186 82.9519 28.4852 83.0603 28.5616 83.1612C28.7587 83.4271 28.9681 83.6831 29.1874 83.9317C29.2638 84.0179 29.3475 84.0967 29.4338 84.1779C29.589 84.3428 29.7467 84.5053 29.9118 84.6703C30.0128 84.7687 30.1212 84.8598 30.2271 84.9509C30.3799 85.0871 30.5351 85.2176 30.6928 85.3423C30.8062 85.4309 30.922 85.5171 31.0378 85.6033C31.2053 85.7239 31.3753 85.8494 31.5453 85.9504C31.6611 86.0267 31.7769 86.1006 31.8952 86.1719C32.0899 86.2901 32.2894 86.396 32.4915 86.5018C32.595 86.556 32.6935 86.6126 32.797 86.6643C33.1025 86.812 33.413 86.9474 33.7308 87.068C33.7899 87.0926 33.854 87.1074 33.9131 87.1296C34.1768 87.2256 34.4453 87.3142 34.7188 87.3905C34.8346 87.4225 34.9652 87.4496 35.0736 87.4767C35.2954 87.5308 35.5171 87.5825 35.7438 87.6244L36.1405 87.6884C36.3623 87.7204 36.5865 87.745 36.8107 87.7647C36.9437 87.777 37.0743 87.7869 37.2098 87.7943C37.4562 87.8066 37.7026 87.809 37.949 87.8066H37.9958C38.3572 90.6327 38.7366 93.4563 39.1341 96.2775C38.2026 95.017 37.0231 93.9599 35.668 93.1713C34.3128 92.3826 32.8107 91.879 31.2537 91.6913C29.6967 91.5037 28.1178 91.6359 26.6138 92.08C25.1098 92.5241 23.7126 93.2705 22.5078 94.2736L25.4989 99.3547L20.65 96.1667C19.7404 97.3672 19.0765 98.7349 18.696 100.192C18.3155 101.649 18.226 103.166 18.4325 104.657C18.5755 105.716 18.8684 106.749 19.3022 107.725C20.2284 109.837 21.7685 111.622 23.7228 112.849C25.677 114.076 27.9552 114.688 30.2617 114.605C32.5682 114.522 34.7965 113.749 36.6576 112.385C38.5187 111.021 39.9266 109.13 40.6987 106.957C40.7431 107.24 40.785 107.528 40.8293 107.813C41.2974 110.768 41.8814 114.44 43.9511 117.434C45.3555 119.463 47.2872 120.962 49.1647 122.281C50.3868 123.141 51.636 123.962 52.9123 124.743C54.2541 125.985 55.8721 126.892 57.6331 127.387C59.6831 128.436 61.7823 129.391 63.9259 130.233L65.2613 130.757C66.4637 131.225 67.6957 131.705 68.9104 132.217C68.7182 132.234 68.5235 132.249 68.3289 132.276C65.9088 132.607 63.6567 133.698 61.8976 135.392C60.1386 137.085 58.9636 139.293 58.5423 141.697L66.6731 146.128L58.5571 145.767C58.9144 147.679 59.751 149.471 60.9888 150.973C62.2266 152.475 63.8253 153.64 65.6355 154.358C67.4457 155.076 69.4085 155.323 71.3406 155.078C73.2726 154.833 75.111 154.102 76.684 152.955C76.5485 153.201 76.4154 153.447 76.2799 153.706C76.0113 154.198 75.7452 154.691 75.4865 155.183C71.9607 161.862 71.7044 167.632 74.7671 171.431L77.263 169.422C74.2817 165.729 76.647 159.853 78.3225 156.68C78.5688 156.2 78.8374 155.715 79.101 155.227C81.3654 151.042 83.9328 146.274 82.9102 141.21C81.3802 133.593 73.0891 130.373 66.4268 127.769Z" fill="#F2F2F2"/>
<path d="M136.5 180C211.887 180 273 177.41 273 174.215C273 171.02 211.887 168.43 136.5 168.43C61.1131 168.43 0 171.02 0 174.215C0 177.41 61.1131 180 136.5 180Z" fill="#3F3D56"/>
<path opacity="0.1" d="M136.5 180C211.887 180 273 177.41 273 174.215C273 171.02 211.887 168.43 136.5 168.43C61.1131 168.43 0 171.02 0 174.215C0 177.41 61.1131 180 136.5 180Z" fill="black"/>
<path d="M136.5 176.8C211.887 176.8 273 174.21 273 171.015C273 167.819 211.887 165.229 136.5 165.229C61.1131 165.229 0 167.819 0 171.015C0 174.21 61.1131 176.8 136.5 176.8Z" fill="#3F3D56"/>
<path d="M20.9432 168.956C20.204 167.6 21.0417 165.938 21.9977 164.727C22.9537 163.516 24.1191 162.265 24.0945 160.717C24.06 158.501 21.7045 157.194 19.8246 156.02C18.4297 155.148 17.1428 154.114 15.9907 152.94C15.5092 152.488 15.1106 151.954 14.813 151.365C14.4237 150.498 14.436 149.513 14.4606 148.563C14.5428 145.402 14.6988 142.245 14.9288 139.09" stroke="#3F3D56" stroke-width="4" stroke-miterlimit="10"/>
<path d="M11.361 138.915C11.3876 138.337 11.5596 137.775 11.861 137.281C12.1625 136.786 12.5837 136.376 13.0858 136.087L13.8594 137.616L13.8372 135.764C14.2062 135.655 14.5911 135.608 14.9756 135.627C15.6564 135.66 16.312 135.894 16.8598 136.299C17.4076 136.704 17.8229 137.263 18.0534 137.904C18.2838 138.544 18.3191 139.239 18.1547 139.9C17.9903 140.561 17.6336 141.159 17.1297 141.617C16.6257 142.076 15.9971 142.375 15.3232 142.477C14.6493 142.579 13.9602 142.479 13.3431 142.19C12.7259 141.901 12.2083 141.435 11.8555 140.853C11.5027 140.27 11.3307 139.596 11.361 138.915Z" fill="#6C63FF"/>
<path d="M17.5282 162.302C17.8718 162.986 18.4331 163.535 19.1238 163.865C19.8144 164.195 20.5952 164.285 21.3431 164.123C22.0911 163.96 22.7637 163.554 23.2551 162.968C23.7465 162.381 24.0288 161.649 24.0575 160.884C24.0821 160.407 24.0057 159.93 23.8333 159.484C23.5854 158.824 23.1411 158.256 22.5601 157.856C21.9791 157.456 21.2894 157.244 20.5841 157.248C19.8787 157.252 19.1915 157.472 18.6151 157.878C18.0387 158.285 17.6009 158.858 17.3606 159.521L19.5215 161.276L17.1463 160.724C17.1449 161.273 17.2759 161.815 17.5282 162.302Z" fill="#6C63FF"/>
<path d="M19.2357 155.594C20.0973 155.659 20.9521 155.399 21.6308 154.864C22.3095 154.33 22.7628 153.561 22.901 152.708C23.0391 151.856 22.8521 150.983 22.3768 150.262C21.9016 149.541 21.1728 149.024 20.3346 148.814L20.3518 150.24L19.5683 148.691C18.6518 148.648 17.7558 148.971 17.0775 149.588C16.3992 150.206 15.9941 151.067 15.9513 151.983C15.9085 152.898 16.2315 153.793 16.8493 154.471C17.4671 155.149 18.329 155.554 19.2455 155.596L19.2357 155.594Z" fill="#6C63FF"/>
<path d="M10.8412 150.013C11.2942 150.034 11.7469 149.966 12.1736 149.813C12.6003 149.659 12.9925 149.424 13.328 149.119C13.6634 148.814 13.9354 148.446 14.1285 148.036C14.3215 147.626 14.4319 147.182 14.4533 146.729C14.4746 146.277 14.4065 145.824 14.2529 145.398C14.0993 144.972 13.8631 144.58 13.5579 144.245C13.2527 143.909 12.8844 143.638 12.4741 143.445C12.0638 143.252 11.6194 143.142 11.1664 143.12C10.5197 143.088 9.87722 143.24 9.31357 143.558L9.92461 145.232L8.66556 144.026C7.99217 144.642 7.59079 145.5 7.54942 146.412C7.53272 146.73 7.5626 147.049 7.63812 147.359C7.81009 148.09 8.21596 148.744 8.79406 149.223C9.37217 149.702 10.0909 149.979 10.8412 150.013Z" fill="#6C63FF"/>
<path opacity="0.1" d="M11.8267 139.836C12.625 139.925 13.4011 140.173 14.2019 140.223C15.0027 140.272 15.8823 140.08 16.3898 139.46C16.6633 139.122 16.7988 138.699 17.028 138.334C17.2475 137.994 17.5469 137.713 17.9002 137.515C18.1088 137.95 18.2235 138.425 18.2367 138.908C18.2499 139.391 18.1613 139.871 17.9768 140.318C17.7922 140.764 17.5158 141.167 17.1654 141.5C16.8151 141.833 16.3986 142.088 15.943 142.25C15.4874 142.411 15.0029 142.476 14.5209 142.438C14.0389 142.401 13.5702 142.262 13.1451 142.032C12.72 141.802 12.3481 141.485 12.0535 141.102C11.7589 140.719 11.5481 140.279 11.4349 139.809C11.5655 139.814 11.6961 139.824 11.8267 139.836Z" fill="black"/>
<path opacity="0.1" d="M10.8412 150.013C11.4376 150.043 12.0316 149.918 12.5651 149.65C13.0987 149.382 13.5535 148.981 13.885 148.484C14.2165 147.988 14.4134 147.415 14.4565 146.819C14.4995 146.224 14.3872 145.628 14.1305 145.09C13.856 145.275 13.62 145.511 13.4357 145.786C13.1893 146.158 13.039 146.586 12.7507 146.929C12.2111 147.561 11.2921 147.768 10.4568 147.729C9.62156 147.689 8.81586 147.455 7.99292 147.379C7.87712 147.379 7.76131 147.359 7.64551 147.357C7.81667 148.087 8.22123 148.741 8.7979 149.22C9.37456 149.699 10.0919 149.978 10.8412 150.013Z" fill="black"/>
<path opacity="0.1" d="M19.2356 155.594C19.8267 155.624 20.4156 155.502 20.9457 155.239C21.4759 154.977 21.9294 154.582 22.2628 154.093C22.5961 153.605 22.7981 153.039 22.8492 152.45C22.9002 151.86 22.7988 151.268 22.5545 150.729C22.2672 150.916 22.0166 151.154 21.8153 151.431C21.5468 151.81 21.3792 152.246 21.0762 152.596C20.4947 153.245 19.514 153.474 18.6295 153.452C17.745 153.43 16.9491 153.223 16.0966 153.159C16.3047 153.839 16.718 154.438 17.28 154.874C17.8419 155.309 18.525 155.561 19.2356 155.594Z" fill="black"/>
<path opacity="0.1" d="M17.5282 162.302C17.8718 162.986 18.4331 163.535 19.1238 163.865C19.8145 164.195 20.5952 164.285 21.3432 164.123C22.0911 163.96 22.7637 163.554 23.2551 162.968C23.7465 162.381 24.0288 161.649 24.0575 160.884C24.0821 160.407 24.0057 159.93 23.8333 159.484C23.5484 159.67 23.2927 159.897 23.0744 160.158C22.7443 160.559 22.5299 161.012 22.148 161.389C21.4409 162.083 20.3001 162.374 19.285 162.396C18.6981 162.398 18.1115 162.367 17.5282 162.302Z" fill="black"/>
<path opacity="0.2" d="M17.134 170.746C20.2163 170.771 24.2941 170.254 25.117 169.761C25.7404 169.382 25.9892 168.016 26.073 167.386H26.1642C26.1642 167.386 25.9917 169.584 25.1786 170.094C24.3655 170.603 20.2779 171.098 17.198 171.079C16.3086 171.079 16.0006 170.756 16.0178 170.286C16.1336 170.564 16.4737 170.746 17.134 170.746Z" fill="black"/>
<path d="M259.941 171.172C259.202 169.816 260.04 168.154 260.996 166.943C261.952 165.732 263.117 164.481 263.093 162.933C263.058 160.717 260.703 159.41 258.823 158.235C257.428 157.363 256.141 156.33 254.989 155.156C254.507 154.703 254.109 154.17 253.811 153.58C253.422 152.714 253.434 151.729 253.459 150.779C253.539 147.618 253.695 144.46 253.927 141.306" stroke="#3F3D56" stroke-width="4" stroke-miterlimit="10"/>
<path d="M250.359 141.131C250.386 140.553 250.558 139.991 250.859 139.496C251.161 139.002 251.582 138.591 252.084 138.302L252.858 139.831L252.835 137.98C253.204 137.87 253.589 137.824 253.974 137.842C254.654 137.876 255.31 138.11 255.857 138.516C256.405 138.921 256.82 139.48 257.05 140.121C257.28 140.762 257.315 141.456 257.15 142.117C256.985 142.778 256.629 143.375 256.125 143.833C255.621 144.292 254.992 144.59 254.318 144.692C253.644 144.794 252.955 144.694 252.338 144.405C251.721 144.116 251.204 143.651 250.851 143.068C250.498 142.485 250.326 141.811 250.357 141.131H250.359Z" fill="#6C63FF"/>
<path d="M256.526 164.518C256.87 165.201 257.431 165.751 258.122 166.081C258.813 166.41 259.593 166.501 260.341 166.338C261.089 166.176 261.762 165.77 262.253 165.183C262.745 164.597 263.027 163.864 263.056 163.1C263.08 162.622 263.004 162.145 262.831 161.699C262.584 161.039 262.139 160.471 261.558 160.072C260.977 159.672 260.288 159.46 259.582 159.464C258.877 159.468 258.19 159.688 257.613 160.094C257.037 160.5 256.599 161.073 256.359 161.736L258.52 163.491L256.144 162.94C256.143 163.489 256.274 164.03 256.526 164.518Z" fill="#6C63FF"/>
<path d="M258.234 157.81C259.096 157.875 259.95 157.614 260.629 157.08C261.308 156.546 261.761 155.776 261.899 154.924C262.037 154.072 261.85 153.199 261.375 152.477C260.9 151.756 260.171 151.24 259.333 151.03L259.35 152.455L258.567 150.907C257.65 150.864 256.754 151.187 256.076 151.804C255.397 152.421 254.992 153.282 254.95 154.198C254.907 155.114 255.23 156.009 255.848 156.687C256.465 157.365 257.327 157.769 258.244 157.812L258.234 157.81Z" fill="#6C63FF"/>
<path d="M249.839 152.229C250.754 152.272 251.649 151.95 252.326 151.334C253.004 150.718 253.408 149.859 253.451 148.945C253.495 148.031 253.173 147.137 252.556 146.46C251.94 145.783 251.079 145.379 250.165 145.336C249.518 145.304 248.875 145.456 248.312 145.774L248.923 147.448L247.664 146.242C246.99 146.858 246.589 147.716 246.548 148.627C246.531 148.946 246.561 149.265 246.636 149.575C246.808 150.305 247.214 150.96 247.792 151.439C248.37 151.918 249.089 152.195 249.839 152.229Z" fill="#6C63FF"/>
<path opacity="0.1" d="M250.825 142.052C251.623 142.14 252.399 142.389 253.2 142.438C254.001 142.487 254.88 142.295 255.388 141.675C255.662 141.338 255.797 140.914 256.026 140.55C256.246 140.21 256.545 139.928 256.898 139.73C257.107 140.166 257.222 140.641 257.235 141.124C257.248 141.607 257.16 142.087 256.975 142.533C256.79 142.98 256.514 143.382 256.164 143.715C255.813 144.048 255.397 144.304 254.941 144.465C254.486 144.627 254.001 144.691 253.519 144.654C253.037 144.616 252.568 144.478 252.143 144.248C251.718 144.018 251.346 143.701 251.052 143.318C250.757 142.935 250.546 142.494 250.433 142.025C250.564 142.03 250.694 142.039 250.825 142.052Z" fill="black"/>
<path opacity="0.1" d="M249.839 152.229C250.436 152.259 251.03 152.134 251.563 151.866C252.097 151.598 252.552 151.196 252.883 150.7C253.215 150.204 253.412 149.63 253.455 149.035C253.498 148.44 253.385 147.844 253.129 147.305C252.854 147.49 252.618 147.727 252.434 148.002C252.187 148.374 252.037 148.802 251.749 149.144C251.209 149.777 250.29 149.984 249.455 149.944C248.62 149.905 247.814 149.671 246.991 149.595C246.875 149.595 246.759 149.575 246.644 149.572C246.815 150.302 247.219 150.956 247.796 151.436C248.373 151.915 249.09 152.193 249.839 152.229Z" fill="black"/>
<path opacity="0.1" d="M258.234 157.81C258.825 157.84 259.414 157.718 259.944 157.455C260.474 157.192 260.928 156.797 261.261 156.309C261.594 155.82 261.796 155.254 261.847 154.665C261.898 154.076 261.797 153.484 261.553 152.945C261.265 153.132 261.015 153.37 260.814 153.647C260.545 154.026 260.377 154.462 260.074 154.811C259.493 155.461 258.512 155.69 257.628 155.668C256.743 155.646 255.947 155.439 255.095 155.375C255.303 156.055 255.716 156.653 256.278 157.089C256.84 157.525 257.523 157.777 258.234 157.81Z" fill="black"/>
<path opacity="0.1" d="M256.526 164.518C256.87 165.201 257.431 165.751 258.122 166.081C258.813 166.41 259.593 166.501 260.341 166.339C261.089 166.176 261.762 165.77 262.253 165.183C262.745 164.597 263.027 163.864 263.056 163.1C263.08 162.622 263.004 162.145 262.831 161.699C262.547 161.885 262.291 162.113 262.073 162.374C261.742 162.775 261.528 163.228 261.146 163.605C260.439 164.299 259.298 164.589 258.283 164.611C257.696 164.614 257.11 164.583 256.526 164.518Z" fill="black"/>
<path d="M265.162 169.611C265.162 169.611 262.432 169.528 261.612 168.942C260.791 168.356 257.423 167.657 257.209 168.597C256.995 169.537 253.106 173.274 256.189 173.289C259.271 173.304 263.349 172.797 264.169 172.305C264.99 171.812 265.162 169.611 265.162 169.611Z" fill="#656380"/>
<path opacity="0.2" d="M256.132 172.962C259.214 172.986 263.292 172.469 264.115 171.977C264.739 171.598 264.987 170.232 265.071 169.601H265.162C265.162 169.601 264.99 171.8 264.177 172.309C263.364 172.819 259.276 173.314 256.196 173.294C255.307 173.294 254.999 172.972 255.016 172.501C255.132 172.78 255.472 172.962 256.132 172.962Z" fill="black"/>
<path d="M183.701 81.5216C182.071 80.9636 180.429 80.4467 178.773 79.9707C179.046 78.8564 179.3 77.7363 179.534 76.6104C183.265 58.5139 180.826 43.9353 172.495 39.1373C164.507 34.5338 151.444 39.3342 138.247 50.8036C136.946 51.9393 135.675 53.1046 134.435 54.2994C133.602 53.5034 132.757 52.723 131.897 51.9582C118.073 39.6912 104.223 34.5239 95.89 39.3367C87.9095 43.9525 85.5416 57.6572 88.9049 74.8084C89.2334 76.507 89.6104 78.1958 90.0358 79.8747C88.077 80.4311 86.1823 81.0244 84.3688 81.657C68.1589 87.292 57.8055 96.1544 57.8055 105.334C57.8055 114.815 68.9202 124.325 85.8053 130.09C87.1752 130.554 88.555 130.986 89.9446 131.385C89.4946 133.19 89.0938 135.01 88.7423 136.845C85.5392 153.698 88.0425 167.081 96.0009 171.667C104.223 176.408 118.021 171.534 131.454 159.801C132.516 158.873 133.58 157.888 134.657 156.859C136.001 158.154 137.38 159.411 138.794 160.631C151.808 171.82 164.665 176.339 172.613 171.738C180.826 166.99 183.494 152.613 180.03 135.124C179.767 133.788 179.461 132.425 179.111 131.035C180.081 130.75 181.031 130.454 181.959 130.147C199.512 124.337 210.934 114.943 210.934 105.334C210.934 96.12 200.246 87.2108 183.708 81.5216H183.701Z" fill="#53C1DE"/>
<path d="M179.894 123.943C179.056 124.221 178.199 124.487 177.322 124.748C175.182 118.119 172.591 111.643 169.568 105.366C172.476 99.1734 174.966 92.793 177.021 86.2679C178.586 86.7209 180.109 87.1985 181.572 87.7032C195.742 92.575 204.385 99.7806 204.385 105.334C204.385 111.243 195.05 118.926 179.894 123.943ZM173.606 136.395C175.139 144.127 175.356 151.118 174.345 156.581C173.434 161.492 171.601 164.767 169.334 166.079C164.507 168.868 154.188 165.242 143.059 155.673C141.783 154.575 140.499 153.405 139.208 152.165C143.848 147.032 148.136 141.592 152.042 135.883C159.02 135.292 165.95 134.223 172.781 132.682C173.093 133.943 173.37 135.174 173.611 136.375L173.606 136.395ZM110.008 165.601C105.292 167.265 101.537 167.312 99.268 166.005C94.4388 163.221 92.4307 152.465 95.1705 138.064C95.4991 136.362 95.8711 134.669 96.2867 132.985C103.09 134.444 109.984 135.442 116.922 135.971C120.943 141.661 125.334 147.08 130.067 152.194C129.116 153.115 128.143 154.01 127.149 154.88C121.209 160.069 115.254 163.742 110.008 165.601ZM87.9218 123.906C80.4537 121.356 74.289 118.042 70.061 114.428C66.2641 111.179 64.3472 107.951 64.3472 105.334C64.3472 99.7634 72.6604 92.6562 86.5223 87.8287C88.2634 87.2231 90.0202 86.6709 91.7925 86.1719C93.8515 92.7692 96.3447 99.2233 99.2557 105.492C96.3084 111.851 93.7848 118.397 91.7014 125.088C90.43 124.725 89.1701 124.331 87.9218 123.906ZM95.3258 73.5529C92.4479 58.8586 94.3575 47.7732 99.167 44.9963C104.289 42.0422 115.616 46.2567 127.556 56.8497C128.32 57.5267 129.086 58.2357 129.852 58.9669C125.153 64.0495 120.797 69.4378 116.811 75.0964C109.939 75.7122 103.113 76.7721 96.3779 78.2696C95.9853 76.7072 95.6346 75.1358 95.3258 73.5553V73.5529ZM161.385 89.8474C159.889 87.2641 158.338 84.7137 156.731 82.1962C161.617 82.8141 166.296 83.6314 170.692 84.6358C169.281 89.1064 167.645 93.503 165.791 97.8087C164.377 95.1254 162.908 92.4716 161.385 89.8474ZM134.44 63.6369C137.624 67.1055 140.632 70.7322 143.451 74.5031C137.421 74.2192 131.388 74.2192 125.353 74.5031C128.327 70.584 131.375 66.9406 134.44 63.6393V63.6369ZM107.337 89.8917C105.834 92.4962 104.393 95.1336 103.013 97.8038C101.109 93.2914 99.4799 88.8528 98.1494 84.5669C102.518 83.5821 107.177 82.7919 112.031 82.1839C110.402 84.7178 108.835 87.2871 107.332 89.8917H107.337ZM112.169 128.948C107.431 128.434 102.723 127.677 98.0632 126.68C99.4158 122.321 101.081 117.786 103.028 113.175C104.413 115.849 105.859 118.488 107.367 121.092C108.901 123.749 110.5 126.368 112.164 128.948H112.169ZM134.625 147.492C131.52 144.159 128.428 140.466 125.412 136.476C128.344 136.592 131.331 136.651 134.371 136.651C137.492 136.651 140.573 136.582 143.613 136.444C140.807 140.278 137.805 143.966 134.62 147.492H134.625ZM165.84 112.941C167.791 117.334 169.511 121.826 170.995 126.397C166.277 127.458 161.507 128.271 156.704 128.832C158.322 126.267 159.889 123.671 161.405 121.045C162.946 118.377 164.424 115.675 165.84 112.941ZM155.738 117.781C153.419 121.805 150.97 125.752 148.393 129.622C143.85 129.947 139.156 130.115 134.371 130.115C129.586 130.115 124.971 129.967 120.507 129.676C117.864 125.82 115.368 121.867 113.019 117.818C110.67 113.769 108.493 109.66 106.487 105.489C108.503 101.3 110.673 97.1884 112.999 93.156C115.322 89.1252 117.797 85.1864 120.423 81.3395C124.979 80.9948 129.645 80.8151 134.366 80.8151C139.087 80.8151 143.783 80.9973 148.334 81.3419C150.931 85.1774 153.395 89.1006 155.726 93.1117C158.057 97.1227 160.257 101.215 162.327 105.389C160.282 109.593 158.088 113.721 155.745 117.771L155.738 117.781ZM169.233 44.7994C174.36 47.7535 176.354 59.6685 173.133 75.2934C172.921 76.3093 172.691 77.3227 172.443 78.3336C165.698 76.8058 158.859 75.726 151.971 75.1013C148.024 69.4377 143.7 64.0457 139.028 58.962C140.178 57.8558 141.351 56.78 142.549 55.7346C153.853 45.9047 164.418 42.0249 169.233 44.7994Z" fill="white"/>
<path d="M134.366 91.6716C137.071 91.6716 139.715 92.4729 141.963 93.9742C144.212 95.4754 145.965 97.6093 147 100.106C148.035 102.602 148.306 105.35 147.778 108C147.251 110.65 145.948 113.085 144.036 114.995C142.123 116.906 139.687 118.208 137.034 118.735C134.381 119.262 131.632 118.991 129.133 117.957C126.634 116.923 124.499 115.172 122.996 112.925C121.494 110.678 120.692 108.037 120.692 105.334C120.691 103.54 121.045 101.763 121.732 100.105C122.419 98.4477 123.426 96.9414 124.696 95.6726C125.966 94.4038 127.474 93.3974 129.133 92.7109C130.792 92.0244 132.57 91.6712 134.366 91.6716Z" fill="#53C1DE"/>
<path d="M137.796 5.02202C137.796 5.83026 137.556 6.62035 137.107 7.29238C136.657 7.96441 136.019 8.48819 135.271 8.79749C134.524 9.10679 133.701 9.18772 132.908 9.03004C132.115 8.87236 131.386 8.48315 130.814 7.91164C130.242 7.34013 129.852 6.61197 129.694 5.81926C129.537 5.02655 129.618 4.20488 129.927 3.45817C130.237 2.71145 130.761 2.07322 131.434 1.62418C132.106 1.17515 132.897 0.935473 133.706 0.935473C134.244 0.932864 134.777 1.03679 135.274 1.24123C135.772 1.44567 136.224 1.74659 136.604 2.12658C136.984 2.50657 137.285 2.9581 137.49 3.45508C137.695 3.95206 137.799 4.48463 137.796 5.02202Z" fill="#3F3D56"/>
<path d="M130.439 6.05317C130.115 5.4678 129.939 4.81192 129.927 4.143C129.916 3.47408 130.069 2.81252 130.372 2.21628C130.676 1.62004 131.121 1.10731 131.67 0.723017C132.218 0.33872 132.852 0.0945781 133.516 0.0119795C132.953 -0.00773723 132.391 0.0891669 131.867 0.296607C131.343 0.504047 130.867 0.817542 130.47 1.21741C130.073 1.61727 129.763 2.09486 129.559 2.6202C129.355 3.14553 129.263 3.70726 129.287 4.2701C129.311 4.83294 129.451 5.38475 129.699 5.89086C129.946 6.39697 130.296 6.84645 130.726 7.21108C131.156 7.57572 131.656 7.84763 132.196 8.00973C132.736 8.17183 133.304 8.22063 133.864 8.15307C133.16 8.12711 132.475 7.92018 131.875 7.55231C131.275 7.18444 130.781 6.66807 130.439 6.05317Z" fill="#3F3D56"/>
<path d="M139.55 10.7136H128.593V27.791H139.55V10.7136Z" fill="#3F3D56"/>
<path opacity="0.1" d="M139.55 10.7136H128.593V27.791H139.55V10.7136Z" fill="black"/>
<path d="M111.284 72.6716C111.284 72.6716 110.114 75.8842 107.342 76.3224C104.57 76.7606 102.959 77.4893 102.959 77.4893L109.533 81.7211L113.039 81.2829C113.039 81.2829 113.477 76.7581 114.938 75.7365C116.399 74.7148 111.284 72.6716 111.284 72.6716Z" fill="#A0616A"/>
<path d="M158.759 72.6716C158.759 72.6716 159.929 75.8842 162.701 76.3224C165.473 76.7606 167.084 77.4893 167.084 77.4893L160.511 81.7211L157.005 81.2829C157.005 81.2829 156.566 76.7581 155.105 75.7365C153.644 74.7148 158.759 72.6716 158.759 72.6716Z" fill="#A0616A"/>
<path d="M126.768 44.3562C126.768 44.3562 125.016 45.2326 124.432 46.9854C124.432 46.9854 121.229 48.0071 119.465 50.779C119.465 50.779 117.272 53.1152 116.981 54.2821C116.69 55.449 113.339 62.4552 113.339 62.4552C113.339 62.4552 109.979 73.4027 108.227 74.5696C108.227 74.5696 113.778 73.4027 114.8 78.9491C114.8 78.9491 116.114 78.9491 117.575 73.8409C119.036 68.7327 122.542 62.4552 122.542 62.4552C122.542 62.4552 123.71 58.0782 124.732 57.347C125.755 56.6159 127.361 53.2605 128.822 54.1467C130.284 55.033 139.925 53.999 139.925 53.999C139.925 53.999 145.616 56.6183 145.759 58.3687C145.902 60.119 146.927 60.2667 147.073 61.7265C147.218 63.1864 152.624 74.7148 152.624 74.7148C152.624 74.7148 153.646 77.9151 153.939 78.6537C153.939 78.6537 157.143 70.9188 161.39 75.2983C161.39 75.2983 161.242 72.3786 159.929 70.6209C158.616 68.8632 152.917 55.1511 152.917 55.1511C152.917 55.1511 152.333 53.1079 151.749 52.5244C151.165 51.941 146.634 47.2685 145.028 47.2685C145.028 47.2685 144.153 45.08 143.13 44.7871L126.768 44.3562Z" fill="#3F3D56"/>
<path d="M113.62 80.2612C112.479 80.7189 111.239 80.8735 110.021 80.71C108.802 80.5465 107.647 80.0704 106.667 79.3282C105.715 78.5978 104.672 77.9937 103.565 77.5311C102.015 76.9058 100.162 76.443 99.5982 77.4893C98.5757 79.3873 112.014 84.0573 112.014 84.0573C112.014 84.0573 113.768 83.0356 113.62 80.2612Z" fill="#3F3D56"/>
<path d="M156.423 80.2612C157.564 80.7189 158.804 80.8735 160.023 80.71C161.241 80.5465 162.397 80.0704 163.376 79.3282C164.328 78.5978 165.371 77.9937 166.478 77.5311C168.028 76.9058 169.881 76.443 170.445 77.4893C171.468 79.3873 158.03 84.0573 158.03 84.0573C158.03 84.0573 156.275 83.0356 156.423 80.2612Z" fill="#3F3D56"/>
<path d="M131.543 20.3515C131.488 20.8586 131.321 21.4076 130.887 21.6759C130.532 21.8975 130.084 21.8802 129.675 21.9639C129.246 22.0714 128.847 22.2782 128.513 22.5677C128.178 22.8572 127.916 23.2213 127.748 23.6306C127.42 24.4566 127.356 25.3637 127.563 26.2277C127.66 26.6509 127.785 27.0671 127.938 27.4734C128.367 28.6846 128.884 29.8859 129.685 30.8928C130.368 31.6933 131.136 32.4172 131.976 33.0518C132.496 33.4752 133.033 33.906 133.674 34.1054C134.108 34.22 134.555 34.2795 135.004 34.2827C135.559 34.3073 136.15 34.3245 136.631 34.0488C137.37 33.6229 137.589 32.6825 137.991 31.9268C138.331 31.2867 138.838 30.7426 139.156 30.0903C139.382 29.5761 139.547 29.0375 139.649 28.4852L140.331 25.4572C140.578 24.3568 140.804 23.1161 140.186 22.1732C140.141 22.0965 140.079 22.0315 140.004 21.9836C139.885 21.9368 139.755 21.924 139.629 21.9467C138.844 21.9977 138.06 21.8189 137.375 21.4322C137.267 21.3767 137.171 21.3015 137.091 21.2106C136.993 21.053 136.934 20.874 136.919 20.6887C136.852 20.3136 136.747 19.9464 136.603 19.5933C136.563 19.466 136.489 19.352 136.389 19.2634C136.284 19.1977 136.165 19.158 136.042 19.1477C134.987 18.9767 133.923 18.8657 132.856 18.8153C132.506 18.7981 131.979 18.6578 131.737 18.968C131.496 19.2782 131.572 19.9822 131.543 20.3515Z" fill="#A0616A"/>
<path opacity="0.1" d="M131.543 20.3515C131.488 20.8586 131.321 21.4076 130.887 21.6759C130.532 21.8975 130.084 21.8802 129.675 21.9639C129.246 22.0714 128.847 22.2782 128.513 22.5677C128.178 22.8572 127.916 23.2213 127.748 23.6306C127.42 24.4566 127.356 25.3637 127.563 26.2277C127.66 26.6509 127.785 27.0671 127.938 27.4734C128.367 28.6846 128.884 29.8859 129.685 30.8928C130.368 31.6933 131.136 32.4172 131.976 33.0518C132.496 33.4752 133.033 33.906 133.674 34.1054C134.108 34.22 134.555 34.2795 135.004 34.2827C135.559 34.3073 136.15 34.3245 136.631 34.0488C137.37 33.6229 137.589 32.6825 137.991 31.9268C138.331 31.2867 138.838 30.7426 139.156 30.0903C139.382 29.5761 139.547 29.0375 139.649 28.4852L140.331 25.4572C140.578 24.3568 140.804 23.1161 140.186 22.1732C140.141 22.0965 140.079 22.0315 140.004 21.9836C139.885 21.9368 139.755 21.924 139.629 21.9467C138.844 21.9977 138.06 21.8189 137.375 21.4322C137.267 21.3767 137.171 21.3015 137.091 21.2106C136.993 21.053 136.934 20.874 136.919 20.6887C136.852 20.3136 136.747 19.9464 136.603 19.5933C136.563 19.466 136.489 19.352 136.389 19.2634C136.284 19.1977 136.165 19.158 136.042 19.1477C134.987 18.9767 133.923 18.8657 132.856 18.8153C132.506 18.7981 131.979 18.6578 131.737 18.968C131.496 19.2782 131.572 19.9822 131.543 20.3515Z" fill="black"/>
<path d="M129.564 22.092C128.994 21.9217 128.403 21.829 127.807 21.8162C126.398 21.7818 124.89 22.2668 124.077 23.4164C123.523 24.2462 123.32 25.2613 123.513 26.2401C123.709 27.2096 124.15 28.113 124.794 28.8643C125.166 29.2593 125.496 29.6915 125.78 30.1543C126.169 30.8928 126.181 31.7766 126.287 32.6161C126.534 34.615 127.386 36.4933 127.724 38.48C128.061 40.4667 127.77 42.7684 126.201 44.0313C125.937 44.243 125.617 44.467 125.595 44.8043C125.56 45.3434 126.263 45.5724 126.802 45.6241C128.416 45.7767 130.072 45.9269 131.639 45.5108C132.287 45.3385 132.913 45.0702 133.573 44.9471C135.248 44.6344 136.934 45.277 138.612 45.5847C139.826 45.785 141.055 45.8846 142.285 45.8826C142.572 45.9081 142.86 45.8703 143.13 45.7718C143.264 45.7193 143.378 45.6257 143.455 45.5044C143.532 45.3832 143.569 45.2406 143.559 45.0972C143.504 44.9117 143.404 44.7425 143.268 44.6049C142.421 43.5586 142.162 42.1677 141.93 40.8408L141.154 36.3826C140.738 33.9996 140.351 31.4098 141.48 29.2705C142.29 27.7319 143.786 26.6487 144.641 25.1347C144.939 24.6771 145.073 24.1323 145.023 23.5887C144.895 22.828 144.207 22.284 143.502 21.9664C142.147 21.3587 140.607 21.3022 139.21 21.8089C139.235 22.8748 138.964 23.9531 138.789 25.0092L138.491 26.7324C138.339 27.748 138.116 28.7516 137.823 29.7358C137.717 30.1295 137.535 30.499 137.288 30.8239C137.025 31.1162 136.704 31.3501 136.345 31.5107C135.567 31.8906 134.712 32.0861 133.846 32.0818C133.472 32.0876 133.098 32.0302 132.743 31.912C132.169 31.6609 131.653 31.2977 131.222 30.8436C131.072 30.7148 130.937 30.5685 130.821 30.4078C130.698 30.2032 130.606 29.9818 130.547 29.7505C130.348 29.1484 130.19 28.5331 130.077 27.9091C130.003 27.4316 129.978 26.9466 129.944 26.4641C129.847 25.0387 129.847 23.4632 129.564 22.092Z" fill="#6C63FF"/>
<path d="M128.083 50.3408C128.083 50.3408 127.499 58.0782 131.151 59.3903C134.802 60.7024 131.589 52.9675 131.589 52.9675L130.419 50.6338L128.083 50.3408Z" fill="#A0616A"/>
<path d="M140.499 50.3408C140.499 50.3408 141.083 58.0782 137.431 59.3903C133.78 60.7024 136.993 52.9675 136.993 52.9675L138.163 50.6338L140.499 50.3408Z" fill="#A0616A"/>
<path opacity="0.1" d="M124.868 24.5168L123.7 26.4148C123.7 26.4148 124.723 32.9829 124.868 34.1497C124.994 34.9917 125.19 35.8218 125.454 36.6312C125.454 36.6312 125.6 40.1343 125.6 41.4489C125.6 42.7635 126.339 44.952 126.339 44.952C126.442 46.1928 126.69 47.4172 127.078 48.6003C127.662 50.2054 128.246 52.1035 128.246 52.1035C128.246 52.1035 128.985 50.0602 131.897 53.1251C132.224 52.7944 132.407 52.3487 132.407 51.8844C132.407 51.42 132.224 50.9743 131.897 50.6436C131.897 50.6436 131.023 46.7048 131.023 44.6591C131.023 42.6133 129.414 32.8425 129.414 32.8425C129.414 32.8425 128.369 21.735 124.868 24.5168Z" fill="black"/>
<path d="M124.577 24.3617L123.409 26.2598C123.409 26.2598 124.432 32.8278 124.577 33.9946C124.704 34.8368 124.901 35.6669 125.166 36.4761C125.166 36.4761 125.311 39.9792 125.311 41.2913C125.311 42.6035 126.051 44.7945 126.051 44.7945C126.153 46.0353 126.401 47.2598 126.79 48.4428C127.374 50.0503 127.96 51.9459 127.96 51.9459C127.96 51.9459 128.699 49.9026 131.612 52.9675C131.937 52.6369 132.12 52.1918 132.12 51.728C132.12 51.2643 131.937 50.8191 131.612 50.4885C131.612 50.4885 130.734 46.5497 130.734 44.504C130.734 42.4582 129.128 32.6874 129.128 32.6874C129.128 32.6874 128.083 21.5873 124.577 24.3617Z" fill="#6C63FF"/>
<path opacity="0.1" d="M143.86 23.3401L144.599 24.2091C144.599 24.2091 145.459 29.1769 143.559 35.4545L142.975 41.1461C142.975 41.1461 141.953 45.9638 141.807 47.1307C141.662 48.2975 141.662 48.4428 141.369 48.881C141.28 48.9835 141.231 49.1146 141.231 49.2503C141.231 49.3859 141.28 49.517 141.369 49.6195L140.492 52.8198C140.492 52.8198 139.178 51.2147 136.549 53.258C136.549 53.258 135.81 52.0911 136.401 51.0695C136.993 50.0479 136.985 49.6097 136.84 49.3167C136.695 49.0238 137.424 47.5664 137.424 47.2734C137.424 46.9805 138.454 40.2722 138.454 40.2722C138.454 40.2722 138.892 33.7041 139.331 31.5156C139.6 30.169 139.595 27.1681 139.548 25.0559C139.501 22.8551 142.167 21.6636 143.736 23.2096C143.773 23.249 143.818 23.2859 143.86 23.3401Z" fill="black"/>
<path d="M144.298 23.0397L145.037 23.9087C145.037 23.9087 145.897 28.8791 143.998 35.1541L143.414 40.8458C143.414 40.8458 142.391 45.6635 142.246 46.8303C142.1 47.9972 142.098 48.1449 141.807 48.5831C141.718 48.6854 141.669 48.8166 141.669 48.9524C141.669 49.0882 141.718 49.2194 141.807 49.3216L140.935 52.5318C140.935 52.5318 139.622 50.9243 136.993 52.9675C136.993 52.9675 136.254 51.8006 136.847 50.779C137.441 49.7574 137.431 49.3192 137.286 49.0287C137.141 48.7382 137.87 47.2759 137.87 46.9854C137.87 46.6949 138.892 39.9792 138.892 39.9792C138.892 39.9792 139.331 33.4112 139.77 31.2202C140.208 29.0292 139.915 22.4637 139.915 22.4637C139.915 22.4637 142.253 20.8586 144.298 23.0397Z" fill="#6C63FF"/>
<path d="M134.509 21.0063C137.737 21.0063 140.354 18.392 140.354 15.167C140.354 11.942 137.737 9.32767 134.509 9.32767C131.281 9.32767 128.665 11.942 128.665 15.167C128.665 18.392 131.281 21.0063 134.509 21.0063Z" fill="#A0616A"/>
<path opacity="0.1" d="M137.557 6.40061C137.276 7.18414 136.762 7.86327 136.085 8.34718C135.407 8.83108 134.597 9.09669 133.764 9.10847C132.932 9.12024 132.115 8.87763 131.424 8.41308C130.733 7.94854 130.2 7.2842 129.897 6.50893C132.178 5.59069 134.509 6.408 134.509 6.408C135.675 5.99935 136.685 6.03627 137.557 6.40061Z" fill="black"/>
<path d="M134.509 6.70095C134.509 6.70095 123.261 2.76211 126.038 21.8802C126.038 21.8802 128.522 23.4853 130.419 22.4637C130.419 22.4637 129.106 9.18242 134.218 9.76586C139.331 10.3493 138.454 22.1732 138.454 22.1732C138.454 22.1732 141.376 23.0471 142.253 21.4347C143.13 19.8222 141.96 4.08408 134.509 6.70095Z" fill="#3F3D56"/>
<path opacity="0.1" d="M134.218 8.88946C130.71 8.49065 130.227 14.618 130.276 18.5027C130.318 14.6402 130.969 9.39413 134.218 9.76585C137.867 10.1819 138.466 16.3289 138.508 19.8099C138.55 16.6145 138.2 9.34489 134.218 8.88946Z" fill="black"/>
<path opacity="0.1" d="M126.038 21.0039C125.784 19.3303 125.638 17.6421 125.602 15.9498C125.59 17.9351 125.736 19.9181 126.038 21.8802C126.038 21.8802 128.522 23.4853 130.419 22.4637C130.419 22.4637 130.39 22.1486 130.355 21.6193C128.465 22.572 126.038 21.0039 126.038 21.0039Z" fill="black"/>
<path opacity="0.1" d="M142.253 20.578C141.435 22.0747 138.846 21.4174 138.496 21.3165C138.478 21.8581 138.454 22.183 138.454 22.183C138.454 22.183 141.376 23.057 142.253 21.4445C142.433 21.1146 142.527 20.1816 142.5 18.9335C142.475 19.7336 142.389 20.3318 142.253 20.578Z" fill="black"/>
<path d="M203.698 165.668C204.866 163.506 203.54 160.857 202.018 158.93C200.495 157.002 198.635 154.991 198.674 152.529C198.731 148.996 202.481 146.914 205.479 145.04C207.702 143.652 209.752 142.005 211.587 140.134C212.326 139.383 213.034 138.581 213.465 137.621C214.086 136.242 214.068 134.666 214.029 133.16C213.899 128.12 213.653 123.086 213.29 118.059" stroke="#3F3D56" stroke-width="4" stroke-miterlimit="10"/>
<path d="M218.977 117.793C218.934 116.871 218.66 115.975 218.18 115.187C217.699 114.398 217.028 113.744 216.227 113.283L214.995 115.721L215.032 112.767C213.911 112.435 212.714 112.469 211.614 112.861C210.513 113.254 209.566 113.987 208.909 114.952C208.252 115.918 207.92 117.068 207.96 118.235C208 119.402 208.41 120.526 209.131 121.445C209.852 122.364 210.846 123.03 211.971 123.347C213.096 123.664 214.292 123.616 215.388 123.209C216.483 122.803 217.421 122.059 218.066 121.085C218.71 120.111 219.028 118.957 218.974 117.791L218.977 117.793Z" fill="#6C63FF"/>
<path d="M209.151 155.062C208.572 156.185 207.625 157.076 206.468 157.584C205.311 158.092 204.014 158.188 202.795 157.854C201.576 157.52 200.509 156.778 199.773 155.751C199.036 154.724 198.676 153.476 198.752 152.215C198.827 150.955 199.335 149.758 200.188 148.827C201.042 147.896 202.191 147.286 203.441 147.1C204.691 146.915 205.967 147.164 207.055 147.807C208.143 148.45 208.977 149.447 209.417 150.631L205.967 153.43L209.754 152.551C209.756 153.424 209.549 154.285 209.151 155.062Z" fill="#6C63FF"/>
<path d="M206.428 144.371C205.08 144.428 203.757 143.989 202.711 143.137C201.665 142.284 200.969 141.079 200.753 139.747C200.538 138.416 200.819 137.053 201.543 135.915C202.267 134.777 203.383 133.944 204.681 133.573L204.651 135.843L205.898 133.381H205.913C206.639 133.342 207.366 133.447 208.051 133.69C208.737 133.932 209.367 134.308 209.906 134.795C210.446 135.283 210.883 135.872 211.194 136.529C211.504 137.186 211.682 137.897 211.716 138.623C211.75 139.349 211.64 140.074 211.392 140.757C211.144 141.44 210.763 142.067 210.272 142.603C209.78 143.138 209.188 143.571 208.528 143.877C207.868 144.182 207.155 144.354 206.428 144.383V144.371Z" fill="#6C63FF"/>
<path d="M219.807 135.476C218.954 135.516 218.104 135.358 217.324 135.014C216.543 134.669 215.853 134.149 215.308 133.493C214.763 132.837 214.378 132.063 214.183 131.233C213.988 130.403 213.989 129.539 214.185 128.709C214.381 127.879 214.768 127.106 215.314 126.451C215.86 125.796 216.551 125.277 217.332 124.934C218.113 124.591 218.963 124.434 219.816 124.475C220.668 124.516 221.499 124.755 222.244 125.171L221.258 127.837L223.261 125.917C224.063 126.652 224.629 127.608 224.889 128.664C225.148 129.72 225.088 130.829 224.717 131.852C224.347 132.874 223.681 133.764 222.805 134.409C221.929 135.054 220.882 135.425 219.795 135.476H219.807Z" fill="#6C63FF"/>
<path opacity="0.1" d="M218.237 119.261C216.964 119.401 215.727 119.797 214.45 119.876C213.174 119.955 211.772 119.65 210.966 118.645C210.53 118.111 210.313 117.436 209.946 116.853C209.598 116.311 209.121 115.863 208.559 115.548C208.204 116.246 208.002 117.012 207.966 117.795C207.93 118.577 208.062 119.358 208.353 120.086C208.643 120.813 209.085 121.47 209.65 122.013C210.215 122.556 210.89 122.973 211.628 123.235C212.367 123.497 213.153 123.598 213.934 123.533C214.716 123.467 215.474 123.235 216.158 122.854C216.843 122.472 217.438 121.949 217.904 121.319C218.37 120.689 218.696 119.967 218.861 119.202C218.651 119.224 218.444 119.239 218.237 119.261Z" fill="black"/>
<path opacity="0.1" d="M219.807 135.476C218.857 135.52 217.912 135.317 217.064 134.888C216.215 134.46 215.492 133.819 214.964 133.028C214.437 132.238 214.123 131.325 214.053 130.377C213.982 129.43 214.158 128.48 214.564 127.621C215.003 127.915 215.379 128.292 215.672 128.731C216.064 129.322 216.303 130.006 216.764 130.55C217.621 131.557 219.09 131.887 220.42 131.828C221.751 131.769 223.032 131.39 224.363 131.267C224.547 131.252 224.732 131.24 224.919 131.235C224.645 132.401 223.998 133.446 223.075 134.212C222.152 134.977 221.005 135.421 219.807 135.476Z" fill="black"/>
<path opacity="0.1" d="M206.428 144.371C205.487 144.415 204.551 144.217 203.709 143.797C202.867 143.377 202.146 142.748 201.616 141.971C201.086 141.194 200.764 140.294 200.68 139.357C200.597 138.42 200.756 137.477 201.14 136.619C201.595 136.917 201.99 137.297 202.306 137.739C202.735 138.342 203.001 139.036 203.503 139.595C204.432 140.629 205.994 140.993 207.404 140.959C208.769 140.929 210.082 140.594 211.439 140.491C211.106 141.575 210.445 142.529 209.548 143.223C208.651 143.918 207.561 144.318 206.428 144.371Z" fill="black"/>
<path opacity="0.1" d="M209.15 155.062C208.512 156.328 207.409 157.298 206.073 157.772C204.736 158.246 203.268 158.187 201.974 157.607C200.679 157.027 199.659 155.971 199.124 154.659C198.589 153.346 198.582 151.878 199.103 150.56C199.557 150.857 199.965 151.221 200.313 151.638C200.837 152.276 201.182 152.999 201.791 153.593C202.917 154.698 204.735 155.153 206.354 155.195C207.288 155.205 208.222 155.161 209.15 155.062Z" fill="black"/>
<path d="M195.387 163.179C195.387 163.179 199.736 163.046 201.054 162.113C202.372 161.18 207.746 160.067 208.071 161.561C208.397 163.056 214.608 169.001 209.698 169.04C204.787 169.08 198.287 168.277 196.979 167.479C195.671 166.682 195.387 163.179 195.387 163.179Z" fill="#656380"/>
<path opacity="0.2" d="M209.776 168.531C204.866 168.57 198.366 167.765 197.058 166.97C196.072 166.362 195.666 164.188 195.533 163.184H195.387C195.387 163.184 195.663 166.689 196.971 167.484C198.28 168.28 204.78 169.085 209.69 169.045C211.107 169.045 211.597 168.531 211.57 167.785C211.373 168.23 210.833 168.511 209.776 168.531Z" fill="black"/>
<path d="M79.5839 10.5512L75.0873 13.3994L77.8173 8.43896C77.047 7.82352 76.0933 7.48222 75.107 7.46902H75.0331C74.7212 7.47338 74.4096 7.45032 74.1018 7.40009L72.5766 8.36511L73.2295 7.17853C72.1503 6.80173 71.2174 6.09449 70.5636 5.15742L67.8361 6.88066L69.5608 3.74928C67.9642 1.83648 65.8157 0.662216 63.4479 0.662216C60.6119 0.662216 58.0864 2.34853 56.4553 4.97525C55.9729 5.76063 55.2913 6.40468 54.4796 6.84218C53.6679 7.27968 52.7549 7.49507 51.833 7.46656H51.6803C48.5487 7.46656 46.0133 11.014 46.0133 15.391C46.0133 19.768 48.5511 23.313 51.6803 23.313C52.3676 23.311 53.044 23.142 53.6514 22.8206C55.694 21.7596 58.3747 21.7399 60.5134 22.6877C61.4303 23.0998 62.4239 23.3139 63.4293 23.316C64.4347 23.3181 65.4292 23.1082 66.3479 22.7C68.4717 21.7719 71.1204 21.7916 73.1507 22.833C73.753 23.1514 74.4232 23.3202 75.1046 23.3253C78.2362 23.3253 80.7715 19.7779 80.7715 15.4033C80.7903 13.7119 80.3818 12.043 79.5839 10.5512Z" fill="#F2F2F2"/>
<path opacity="0.03" d="M71.1057 22.1437C69.4696 21.8328 67.778 22.0162 66.2468 22.6705C65.3285 23.0783 64.3344 23.288 63.3295 23.2859C62.3246 23.2838 61.3314 23.0699 60.4148 22.6582C58.2737 21.7104 55.5929 21.7301 53.5504 22.7911C52.943 23.1125 52.2665 23.2815 51.5792 23.2835C48.7975 23.2835 46.4839 20.482 46.001 16.7893C46.5567 16.3848 47.0286 15.8765 47.3906 15.2925C49.0316 12.6683 51.5472 10.9771 54.3832 10.9771C57.2191 10.9771 59.715 12.6437 61.3461 15.2408C61.8329 16.0255 62.5141 16.6715 63.3238 17.1161C64.1336 17.5607 65.0445 17.789 65.9684 17.7789H66.0325C68.25 17.7814 70.1718 19.5563 71.1057 22.1437Z" fill="black"/>
<path d="M197.129 16.3511L194.894 17.7715L196.257 15.3098C195.872 14.9989 195.394 14.8256 194.899 14.8174H194.865C194.709 14.8196 194.553 14.8081 194.399 14.7829L193.638 15.2753L193.958 14.6697C193.42 14.4823 192.954 14.1299 192.628 13.6628L191.268 14.5245L192.127 12.9637C191.766 12.4971 191.304 12.1168 190.777 11.8502C190.25 11.5837 189.67 11.4376 189.08 11.4226C187.663 11.4226 186.404 12.2646 185.591 13.5742C185.349 13.9643 185.008 14.2836 184.603 14.4998C184.198 14.7159 183.743 14.8213 183.285 14.8051H183.208C181.646 14.8051 180.38 16.5751 180.38 18.7439C180.38 20.9128 181.646 22.6951 183.208 22.6951C183.552 22.6939 183.89 22.6094 184.194 22.4489C184.725 22.1908 185.307 22.0512 185.898 22.0398C186.488 22.0283 187.075 22.1452 187.616 22.3824C188.074 22.5861 188.57 22.6914 189.071 22.6914C189.572 22.6914 190.068 22.5861 190.526 22.3824C191.063 22.15 191.644 22.0356 192.23 22.047C192.815 22.0585 193.391 22.1956 193.919 22.4489C194.222 22.6095 194.561 22.694 194.904 22.6951C196.466 22.6951 197.733 20.9275 197.733 18.7439C197.735 17.9084 197.528 17.0857 197.129 16.3511Z" fill="#F2F2F2"/>
<path opacity="0.03" d="M192.904 22.1338C192.088 21.9799 191.245 22.0716 190.482 22.3972C190.024 22.6009 189.528 22.7062 189.027 22.7062C188.525 22.7062 188.03 22.6009 187.572 22.3972C187.03 22.1599 186.443 22.043 185.852 22.0545C185.261 22.0659 184.679 22.2056 184.147 22.4637C183.843 22.6248 183.505 22.7094 183.161 22.7099C181.772 22.7099 180.619 21.314 180.377 19.4726C180.653 19.2726 180.889 19.022 181.072 18.7341C181.885 17.4244 183.147 16.585 184.561 16.585C185.975 16.585 187.219 17.4146 188.032 18.7095C188.275 19.1012 188.615 19.4235 189.019 19.6452C189.423 19.867 189.878 19.9805 190.339 19.9748H190.376C191.482 19.9576 192.431 20.8438 192.904 22.1338Z" fill="black"/>
<path d="M50.3473 53.1399L53.9594 55.4244L51.7715 51.4486C52.3919 50.9552 53.1591 50.6824 53.952 50.6732H54.0087C54.2562 50.6769 54.5035 50.6587 54.7479 50.619L55.9675 51.392L55.4377 50.4418C56.3018 50.1382 57.0489 49.5717 57.574 48.8219L59.7594 50.2054L58.3944 47.6969C59.6732 46.1657 61.3955 45.2351 63.2902 45.2351C65.5644 45.2351 67.5872 46.5842 68.8956 48.6816C69.281 49.3101 69.8258 49.8257 70.4748 50.1763C71.1238 50.5269 71.854 50.7 72.5914 50.6781H72.7146C75.2229 50.6781 77.2556 53.519 77.2556 57.0245C77.2556 60.5301 75.2229 63.3735 72.7146 63.3735C72.1622 63.3713 71.6186 63.2353 71.1303 62.9771C70.2765 62.5626 69.3426 62.3385 68.3935 62.3202C67.4444 62.3019 66.5026 62.4899 65.6334 62.8713C64.8969 63.2001 64.0993 63.3701 63.2927 63.3701C62.486 63.3701 61.6884 63.2001 60.952 62.8713C60.0889 62.4977 59.1557 62.3139 58.2154 62.3322C57.275 62.3504 56.3496 62.5704 55.5018 62.9771C55.0185 63.2285 54.4821 63.361 53.9372 63.3636C51.4265 63.3636 49.3938 60.5227 49.3938 57.0147C49.382 55.6637 49.7099 54.3314 50.3473 53.1399Z" fill="#F2F2F2"/>
<path opacity="0.03" d="M57.1354 62.4281C58.4464 62.1813 59.8012 62.3286 61.0283 62.8516C61.7648 63.1804 62.5624 63.3505 63.369 63.3505C64.1757 63.3505 64.9733 63.1804 65.7097 62.8516C66.5794 62.4702 67.5216 62.2821 68.4711 62.3004C69.4206 62.3187 70.3549 62.5429 71.2092 62.9574C71.6965 63.2156 72.2394 63.3516 72.791 63.3538C75.0208 63.3538 76.8737 61.1111 77.2605 58.152C76.8156 57.8267 76.4375 57.4188 76.1468 56.9507C74.8385 54.8483 72.8156 53.5042 70.5414 53.5042C68.2673 53.5042 66.2715 54.8385 64.9632 56.9211C64.5739 57.5486 64.0292 58.0651 63.3818 58.4209C62.7344 58.7766 62.0062 58.9596 61.2673 58.9521H61.2107C59.4219 58.9349 57.8844 60.3578 57.1354 62.4281Z" fill="black"/>
</g>
<defs>
<clipPath id="clip0">
<rect width="273" height="180" fill="white"/>
</clipPath>
</defs>
</svg>
