<svg width="528" height="283" viewBox="0 0 528 283" fill="none" xmlns="http://www.w3.org/2000/svg">
<g clip-path="url(#clip0)">
<g opacity="0.5">
<path opacity="0.5" d="M123.459 26.6578C124.031 24.4504 124.357 22.6487 124.123 21.7406L123.888 21.7696L124.249 21.6344L125.221 20.876H125.25L126.051 20.2529C127.403 20.9617 128.921 21.4152 130.5 21.5826C132.08 21.75 133.683 21.6271 135.201 21.2225C136.719 20.8179 138.115 20.1411 139.295 19.2385C140.474 18.3358 141.408 17.2286 142.034 15.9926C143 16.4756 143.75 16.6833 143.876 16.2583C144.619 14.3237 145.02 12.3071 145.066 10.2736C145.069 9.55096 144.979 8.83016 144.797 8.12412C143.578 3.54021 138.012 0.468163 132.475 0.0334402C128.224 -0.299848 123.579 0.815946 121.005 3.68995C118.774 6.18236 114.387 7.85363 112.425 10.5006C110.84 12.6356 111.332 15.4999 110.583 17.9585C109.769 18.4044 108.986 18.8881 108.237 19.4076C106.45 20.4149 104.91 21.704 103.701 23.2042C101.774 25.0988 100.004 27.1033 98.4036 29.2034C89.903 40.2308 84.7546 43.8149 81.8543 44.8293L106.235 44.9597C110.311 51.4376 115.964 57.1136 122.824 61.6144L122.973 61.5468L123.076 61.6192L127.115 59.7306C123.127 54.4113 119.945 48.6913 117.642 42.7039C118.214 41.3515 118.952 39.516 119.741 37.4776C125.359 43.8632 133.51 50.8381 144.614 55.0984L146.416 52.3934C146.416 52.3934 132.063 41.8345 123.459 26.6578Z" fill="url(#paint0_linear)"/>
<path opacity="0.5" d="M81.8657 44.8979H78.6794C78.6794 44.8979 79.5547 45.6804 81.8657 44.8979Z" fill="url(#paint1_linear)"/>
</g>
<path d="M117.75 35.3478C122.899 41.5692 130.741 48.7615 141.776 53.0073L143.418 50.539C143.418 50.539 123.968 36.1835 118.277 17.4131L117.705 17.8333C112.854 21.398 112.854 29.4163 117.75 35.3478Z" fill="#4D8AF0"/>
<path opacity="0.05" d="M117.75 35.3478C122.899 41.5692 130.741 48.7615 141.776 53.0073L143.418 50.539C143.418 50.539 123.968 36.1835 118.277 17.4131L117.705 17.8333C112.854 21.398 112.854 29.4163 117.75 35.3478Z" fill="black"/>
<path d="M120.17 15.1235L116.383 16.9784L112.213 22.3786L118.162 24.3493L123.225 22.4414L126.686 19.7461L120.17 15.1235Z" fill="#FDA57D"/>
<path d="M116.492 17.273C116.492 17.273 109.353 16.79 99.6507 29.3873C85.7214 47.4573 81.6484 43.6269 81.6484 43.6269L116.292 43.8104C116.292 43.8104 123.997 26.0254 123.105 22.5573C123.11 22.538 116.446 23.6441 116.492 17.273Z" fill="#4D8AF0"/>
<path opacity="0.1" d="M120.067 15.0607C120.485 17.6159 121.652 20.4561 124.14 21.7651L125.993 20.3161L120.067 15.0511V15.0607Z" fill="black"/>
<path d="M140.254 14.0012C140.289 9.29282 135.798 5.45194 130.221 5.42236C124.645 5.39278 120.097 9.18568 120.062 13.894C120.027 18.6024 124.518 22.4433 130.095 22.4728C135.671 22.5024 140.219 18.7095 140.254 14.0012Z" fill="#FDA57D"/>
<path opacity="0.1" d="M141.136 17.5532C141.925 15.2008 142.611 12.7229 141.976 10.3078C140.861 6.12478 135.787 3.32323 130.736 2.92715C126.857 2.62284 122.618 3.64203 120.273 6.26486C118.237 8.53508 117.905 11.6071 116.114 14.0223C114.455 16.2587 111.624 17.8285 110.394 20.2485C110.186 20.5717 110.125 20.9478 110.222 21.3063C110.445 21.8618 111.229 22.055 111.893 22.224C113.522 22.6427 115.033 23.3375 116.333 24.266C117.633 25.1945 118.696 26.3372 119.455 27.6243C119.266 23.1031 123.133 19.2727 126.783 15.964C128.499 14.4183 131.359 12.1481 133.934 13.5924C134.282 13.8242 140.701 18.8477 141.136 17.5532Z" fill="black"/>
<path d="M121.812 27.4697C121.812 27.4697 123.843 32.1309 119.472 33.6572L121.812 27.4697Z" fill="#6C63FF"/>
<path d="M509.694 40.4727H0V215.913H509.694V40.4727Z" fill="url(#paint2_linear)"/>
<path d="M506.262 42.9893H4.00433V213.014H506.262V42.9893Z" fill="white"/>
<path d="M122.99 59.8952V104.817H144.728V116.892C151.021 107.715 160.173 104.817 160.173 104.817H247.125V59.8952H122.99Z" fill="#6C63FF"/>
<path d="M37.7551 133.798V168.576H59.493V180.652C65.7855 171.474 74.9382 168.576 74.9382 168.576H171.614V133.798H37.7551Z" fill="#6C63FF"/>
<path d="M480.52 83.0804V117.858H458.782V129.934C452.49 120.756 443.337 117.858 443.337 117.858H346.661V83.0804H480.52Z" fill="#E0E0E0"/>
<path d="M480.52 177.27V197.075H472.511V209.15C466.219 199.973 457.066 197.075 457.066 197.075H232.251V177.27H480.52Z" fill="#E0E0E0"/>
<path d="M469.651 190.312C471.863 190.312 473.655 188.798 473.655 186.931C473.655 185.064 471.863 183.55 469.651 183.55C467.44 183.55 465.647 185.064 465.647 186.931C465.647 188.798 467.44 190.312 469.651 190.312Z" fill="white"/>
<path d="M458.21 190.312C460.422 190.312 462.214 188.798 462.214 186.931C462.214 185.064 460.422 183.55 458.21 183.55C455.999 183.55 454.206 185.064 454.206 186.931C454.206 188.798 455.999 190.312 458.21 190.312Z" fill="white"/>
<path d="M446.769 190.312C448.981 190.312 450.774 188.798 450.774 186.931C450.774 185.064 448.981 183.55 446.769 183.55C444.558 183.55 442.765 185.064 442.765 186.931C442.765 188.798 444.558 190.312 446.769 190.312Z" fill="white"/>
<path d="M435.328 190.312C437.54 190.312 439.333 188.798 439.333 186.931C439.333 185.064 437.54 183.55 435.328 183.55C433.117 183.55 431.324 185.064 431.324 186.931C431.324 188.798 433.117 190.312 435.328 190.312Z" fill="white"/>
<path opacity="0.1" d="M102.454 34.7537C105.752 44.3559 112.559 52.8324 121.903 58.9726L125.587 57.2482C125.587 57.2482 109.902 37.5987 114.638 18.4419L113.632 18.64C111.614 19.0335 109.713 19.7706 108.045 20.8062C106.377 21.8418 104.976 23.1542 103.93 24.6628C102.883 26.1714 102.213 27.8445 101.959 29.5796C101.705 31.3148 101.873 33.0754 102.454 34.7537Z" fill="black"/>
<path d="M102.683 34.7537C105.981 44.3559 112.788 52.8324 122.132 58.9726L125.816 57.2482C125.816 57.2482 110.119 37.5794 114.879 18.4226L113.872 18.6206C111.851 19.0128 109.946 19.7497 108.275 20.7861C106.603 21.8226 105.201 23.1366 104.153 24.6476C103.105 26.1585 102.434 27.8345 102.181 29.5724C101.928 31.3103 102.099 33.0735 102.683 34.7537Z" fill="#4D8AF0"/>
<path d="M141.136 17.3648C141.925 15.0124 142.611 12.5345 141.977 10.1194C140.861 5.93636 135.787 3.13482 130.736 2.73873C126.857 2.43443 122.618 3.45361 120.273 6.07644C118.237 8.34667 114.238 9.87303 112.447 12.2882C110.788 14.5246 111.624 17.6353 110.377 20.06C110.169 20.3833 110.108 20.7594 110.205 21.1179C110.428 21.6733 111.212 21.8666 111.875 22.0356C113.505 22.4542 115.015 23.1491 116.316 24.0776C117.616 25.0061 118.678 26.1488 119.438 27.4358C119.249 22.9147 123.116 19.0843 126.766 15.7756C128.482 14.2299 131.342 11.9597 133.916 13.4039C134.282 13.631 140.701 18.6544 141.136 17.3648Z" fill="#333333"/>
<path d="M122.229 59.0547C122.229 59.0547 127.572 65.8171 128.722 62.9189C129.872 60.0208 126.051 57.1226 126.051 57.1226L122.229 59.0547Z" fill="#FDA57D"/>
<path d="M127.934 16.6724C128.594 15.5581 128.67 14.4614 128.105 14.2228C127.54 13.9841 126.547 14.6939 125.887 15.8082C125.227 16.9224 125.15 18.0191 125.715 18.2578C126.281 18.4964 127.274 17.7866 127.934 16.6724Z" fill="#FDA57D"/>
<g opacity="0.5">
<path opacity="0.5" d="M512.234 184.588C518.401 193.186 519.957 199.842 519.957 199.842C521.788 172.31 511.863 182.115 510.902 182.579V182.545L507.584 184.163C506.169 182.963 504.252 182.281 502.246 182.265C500.826 182.268 499.436 182.615 498.242 183.265C495.88 183.313 493.992 184.327 493.992 185.583C493.994 185.786 494.045 185.987 494.141 186.173C493.091 187.146 492.374 188.342 492.069 189.633C491.763 190.923 491.88 192.26 492.406 193.499C492.933 194.738 493.849 195.833 495.056 196.665C496.264 197.498 497.717 198.037 499.26 198.224L500.136 203.479L498.751 204.397C497.895 204.957 497.189 205.663 496.68 206.47C496.171 207.277 495.871 208.166 495.8 209.078C495.668 211.01 496.618 213.251 500.948 214.391C500.948 214.391 500.874 215.062 500.731 216.125L493.408 228.491C493.408 228.491 490.479 234.156 493.62 234.325C498.133 233.664 497.35 232.171 497.939 230.843L498.282 229.877H499.998C498.597 236.349 494.02 258.607 494.478 271.716V275.508L494.186 277.387L485.754 279.522C485.261 279.648 484.839 279.92 484.567 280.289C484.294 280.658 484.19 281.099 484.273 281.528C484.356 281.957 484.622 282.346 485.019 282.622C485.417 282.898 485.92 283.043 486.435 283.029L498.351 282.696C498.9 282.679 499.42 282.484 499.802 282.151C500.184 281.818 500.398 281.372 500.399 280.908V275.784H502.544V271.692L504.701 249.864L504.981 249.304L505.238 252.139L514.934 270.33L517.091 273.513L518.029 273.088L517.732 276.078L513.808 278.976C513.464 279.229 513.225 279.568 513.127 279.944C513.029 280.32 513.077 280.712 513.264 281.063C513.381 281.281 513.549 281.477 513.758 281.639C513.966 281.801 514.21 281.926 514.477 282.007C514.744 282.088 515.027 282.123 515.31 282.11C515.593 282.098 515.87 282.037 516.124 281.932L526.822 277.489C527.315 277.283 527.694 276.924 527.88 276.487C528.065 276.05 528.043 275.569 527.817 275.146L526.873 273.383C526.737 273.13 526.533 272.907 526.276 272.733C526.02 272.558 525.719 272.437 525.397 272.378L523.372 270.668L524.07 270.35L522.457 267.166L512.761 248.068L512.36 237.315C513.848 236.565 515.034 235.454 515.763 234.126C516.491 232.798 516.729 231.316 516.445 229.872H517.068C517.068 229.872 515.695 223.11 514.98 215.772L514.912 215.058V213.956C514.912 213.956 514.837 213.608 514.711 213.048C513.951 205.803 512.772 200.006 506.342 199.364L506.297 199.398V197.161C507.612 196.389 508.682 195.353 509.409 194.147C510.137 192.942 510.5 191.602 510.467 190.249C510.472 188.786 510.044 187.344 509.22 186.057L512.223 184.608L512.234 184.588Z" fill="url(#paint3_linear)"/>
</g>
<path d="M502.447 199.2C506.863 199.2 510.444 195.746 510.444 191.486C510.444 187.226 506.863 183.772 502.447 183.772C498.03 183.772 494.449 187.226 494.449 191.486C494.449 195.746 498.03 199.2 502.447 199.2Z" fill="#795548"/>
<path d="M500.656 273.571V277.542H494.386L494.907 274.161L500.656 273.571Z" fill="#FDA57D"/>
<path d="M517.892 270.47L517.371 275.784H517.72C520.188 275.784 522.57 275.019 524.413 273.634L526.25 272.253L521.547 268.282L517.892 270.47Z" fill="#FDA57D"/>
<path d="M504.832 245.788L505.353 251.521L514.757 269.161L522.068 266.075L512.669 247.551L512.143 233.442H503.785L504.832 245.788Z" fill="#4D8AF0"/>
<path opacity="0.05" d="M504.832 245.788L505.353 251.521L514.757 269.161L522.068 266.075L512.669 247.551L512.143 233.442H503.785L504.832 245.788Z" fill="black"/>
<path d="M502.744 213.599L493.866 228.573C493.866 228.573 491.006 234.069 494.072 234.229C498.448 233.586 497.687 232.137 498.259 230.848L503.785 214.908L502.744 213.599Z" fill="#FDA57D"/>
<path d="M500.799 199.33C505.415 199.33 509.157 196.171 509.157 192.273C509.157 188.376 505.415 185.216 500.799 185.216C496.183 185.216 492.442 188.376 492.442 192.273C492.442 196.171 496.183 199.33 500.799 199.33Z" fill="#FDA57D"/>
<path d="M506.4 202.571L500.542 205.151L499.089 196.398H506.4V202.571Z" fill="#FDA57D"/>
<path d="M500.656 228.152C500.656 228.152 494.364 255.492 494.936 270.49H502.767L504.855 249.323L510.575 237.856C510.575 237.856 518.407 235.654 515.798 228.152H500.656Z" fill="#4D8AF0"/>
<path d="M502.738 269.867H494.907V274.45H502.738V269.867Z" fill="#4D8AF0"/>
<path opacity="0.05" d="M502.738 269.867H494.907V274.45H502.738V269.867Z" fill="white"/>
<path d="M514.545 268.751L516.719 272.277L523.635 269.2L521.788 265.577L514.545 268.751Z" fill="#4D8AF0"/>
<path d="M496.286 276.334L486.452 278.054C486.029 278.161 485.658 278.38 485.394 278.68C485.13 278.979 484.988 279.342 484.988 279.715C484.988 279.948 485.043 280.178 485.15 280.393C485.258 280.607 485.415 280.801 485.613 280.963C485.811 281.124 486.046 281.251 486.303 281.334C486.56 281.418 486.835 281.457 487.11 281.449L498.665 281.126C499.198 281.111 499.703 280.921 500.073 280.598C500.444 280.274 500.651 279.842 500.65 279.392V277.518C500.65 276.552 500.873 276.267 499.741 276.267H496.881C496.679 276.264 496.479 276.287 496.286 276.334Z" fill="#333333"/>
<path d="M506.445 200.33L499.066 205.233C498.237 205.776 497.553 206.462 497.06 207.244C496.567 208.027 496.276 208.889 496.206 209.773C496.08 211.657 497.001 213.821 501.177 214.922C501.177 214.922 499.609 229.036 497.001 229.896H516.845C516.845 229.896 515.512 223.361 514.826 216.227C514.025 207.996 513.447 201.04 506.445 200.33Z" fill="#EEEEEE"/>
<path d="M506.399 209.189L511.102 216.246L510.553 232.118C510.553 232.118 507.944 235.644 510.032 236.089C512.12 236.533 515.255 235.205 514.734 232.562V214.478C514.734 214.478 513.167 206.981 511.599 205.218L506.399 209.189Z" fill="#FDA57D"/>
<path d="M521.421 272.885L513.664 277.527C513.33 277.772 513.099 278.101 513.004 278.466C512.909 278.83 512.956 279.211 513.138 279.551C513.251 279.764 513.414 279.955 513.616 280.113C513.818 280.271 514.056 280.393 514.316 280.472C514.575 280.551 514.851 280.585 515.126 280.572C515.402 280.559 515.671 280.499 515.918 280.396L526.295 276.088C526.774 275.89 527.142 275.542 527.323 275.118C527.503 274.694 527.481 274.228 527.262 273.818L526.347 272.108C525.878 271.234 525.317 271.045 524.282 271.441L521.421 272.89C521.238 272.953 521.57 272.774 521.421 272.885Z" fill="#333333"/>
<path d="M510.604 186.888L508.711 187.68L507.378 185.728L509.248 184.883L510.604 186.888Z" fill="#795548"/>
<path d="M509.248 184.888C509.248 184.888 521.788 173.73 519.185 200.828C517.028 195.901 514.145 191.224 510.604 186.907L509.248 184.888Z" fill="#795548"/>
<path d="M503.207 198.239C507.204 198.239 510.444 195.215 510.444 191.486C510.444 187.757 507.204 184.733 503.207 184.733C499.211 184.733 495.971 187.757 495.971 191.486C495.971 195.215 499.211 198.239 503.207 198.239Z" fill="#795548"/>
<path d="M498.734 189.235C501.1 189.235 503.019 188.227 503.019 186.984C503.019 185.741 501.1 184.733 498.734 184.733C496.368 184.733 494.449 185.741 494.449 186.984C494.449 188.227 496.368 189.235 498.734 189.235Z" fill="#795548"/>
<g opacity="0.5">
<path opacity="0.5" d="M255.036 194.819C254.172 192.631 249.035 195.587 249.035 195.587L248.612 196.07L239.459 206.489L217.126 195.939V191.215C218.179 191.116 219.196 190.837 220.116 190.394C221.036 189.95 221.839 189.353 222.476 188.638C223.112 187.924 223.569 187.106 223.818 186.237C224.066 185.368 224.102 184.465 223.922 183.584C225.032 183.124 226.008 182.465 226.783 181.652C227.561 180.951 228.396 180.106 228.316 179.174C228.329 179.025 228.319 178.876 228.287 178.729C228.158 178.343 227.915 177.991 227.581 177.705C227.247 177.42 226.832 177.21 226.376 177.097C225.466 176.875 224.536 176.713 223.596 176.614C221.382 176.246 219.38 175.271 217.218 174.715C216.236 174.465 215.226 174.303 214.203 174.232C213.472 174.145 212.726 174.215 212.035 174.435C211.337 174.777 210.709 175.213 210.176 175.725C209.461 176.286 208.637 176.739 207.739 177.063C206.401 177.546 204.879 177.739 203.689 178.42C203.353 178.59 203.072 178.827 202.871 179.111C202.698 179.411 202.623 179.744 202.654 180.077C202.648 180.375 202.675 180.672 202.734 180.966C202.858 182.23 203.267 183.463 203.941 184.598C204.61 185.467 205.432 186.246 206.378 186.907L208.408 188.477C208.803 188.841 209.277 189.137 209.804 189.351C209.803 189.231 209.83 189.112 209.884 189.001C209.938 188.889 210.018 188.788 210.119 188.704L209.461 192.568C208.237 192.254 206.965 192.092 205.685 192.085C203.969 192.085 202.213 192.331 201.452 193.326C201.409 193.386 201.37 193.449 201.338 193.515C198.958 195.901 193.501 203.629 196.71 222.395C196.435 224.689 196.27 226.143 196.27 226.143V226.375V226.549L196.304 226.573L198.089 247.295L194.656 267.717H195.423V269.987H194.559V273.634C194.559 273.634 206.572 272.987 208.38 270.736C209.896 268.852 202.35 269.591 199.742 269.9V268.538H199.788V267.77H200.697L204.129 253.912C207.682 248.725 205.846 235.76 205.846 235.76L210.165 237.948L213.597 253.183L211.08 275.784H211.846V277.363H210.84V281.01C210.84 281.01 222.853 280.363 224.66 278.112C226.17 276.228 218.637 276.967 216.022 277.276L215.731 275.827H216.257L219.689 255.405C221.405 249.874 219.071 233.635 218.762 231.558L223.047 207.672L222.984 207.604L223.047 207.266L240.323 212.372C240.323 212.372 242.039 213.821 243.824 209.474C245.483 205.421 250.036 199.987 250.625 199.296L250.688 199.224C250.688 199.224 255.9 197.007 255.036 194.819Z" fill="url(#paint4_linear)"/>
</g>
<path d="M196.207 265.993V269.543H200.411V264.573L196.207 265.993Z" fill="#FDA57D"/>
<path d="M212.19 273.098V277.358L216.394 276.648L215.553 272.388L212.19 273.098Z" fill="#FDA57D"/>
<path d="M202.98 193.587C202.98 193.587 192.935 199.939 197.888 224.8L202.98 193.587Z" fill="#4D8AF0"/>
<path opacity="0.05" d="M202.98 193.587C202.98 193.587 192.935 199.939 197.888 224.8L202.98 193.587Z" fill="black"/>
<path opacity="0.05" d="M216.022 275.267L215.599 273.137L212.235 273.847V275.267H216.022Z" fill="black"/>
<path opacity="0.05" d="M196.252 267.456H200.457V265.321L196.252 266.741V267.456Z" fill="black"/>
<path d="M210.599 189.365L209.758 194.336L217.327 197.891V190.786L210.599 189.365Z" fill="#FDA57D"/>
<path d="M195.457 266.708L198.821 246.802L197.07 226.22L218.94 231.191C218.94 231.191 221.651 248.869 219.872 254.627L216.509 274.513H211.463L213.986 252.497L210.622 237.658L206.418 235.528C206.418 235.528 208.191 248.155 204.736 253.207L201.372 266.703L195.457 266.708Z" fill="#EEEEEE"/>
<path d="M254.247 195.679C253.406 193.548 248.406 196.427 248.406 196.427L247.994 196.91L249.979 200.026L250.042 199.953C250.042 199.953 255.087 197.809 254.247 195.679Z" fill="#FDA57D"/>
<path opacity="0.05" d="M210.508 193.945C210.508 193.945 203.781 192.447 202.099 194.655C200.417 196.862 197.07 226.616 197.07 226.616C197.07 226.616 207.07 233.717 218.94 231.587L223.121 208.16L210.508 193.945Z" fill="black"/>
<path d="M239.104 207.044L212.516 194.486C210.594 193.568 208.431 193.07 206.223 193.036C204.541 193.036 202.837 193.278 202.104 194.244C200.423 196.451 197.059 226.206 197.059 226.206C197.059 226.206 207.058 233.306 218.928 231.176L223.133 207.74L239.974 212.725C239.974 212.725 241.656 214.145 243.406 209.923C245.019 205.977 249.453 200.688 250.025 200.011L247.983 196.901L239.104 207.044Z" fill="#4D8AF0"/>
<path opacity="0.05" d="M210.485 190.472C211.192 191.235 212.096 191.852 213.128 192.276C214.16 192.701 215.292 192.921 216.44 192.921C216.721 192.921 217.002 192.908 217.281 192.882V191.496L210.554 190.076L210.485 190.472Z" fill="black"/>
<path d="M216.486 192.206C220.666 192.206 224.054 189.345 224.054 185.815C224.054 182.286 220.666 179.425 216.486 179.425C212.306 179.425 208.918 182.286 208.918 185.815C208.918 189.345 212.306 192.206 216.486 192.206Z" fill="#FDA57D"/>
<path d="M195.354 268.915V272.465C195.354 272.465 207.035 271.832 208.815 269.625C210.594 267.418 199.565 268.915 199.565 268.915H195.354Z" fill="#333333"/>
<path d="M211.206 276.059V279.609C211.206 279.609 222.887 278.976 224.666 276.769C226.445 274.562 215.416 276.059 215.416 276.059H211.206Z" fill="#333333"/>
<path opacity="0.05" d="M211.686 188.747L214.644 185.173C215.049 184.626 215.555 184.137 216.143 183.724C216.439 183.518 216.789 183.374 217.164 183.304C217.538 183.233 217.927 183.238 218.299 183.318C218.727 183.466 219.125 183.669 219.478 183.922C220.582 184.603 221.943 185.105 223.287 184.888C224.632 184.67 225.776 183.748 226.754 182.864C227.566 182.135 228.442 181.241 228.218 180.256C228.088 179.885 227.849 179.548 227.524 179.276C227.199 179.003 226.799 178.804 226.359 178.695C225.474 178.475 224.569 178.314 223.653 178.212C221.497 177.855 219.546 176.903 217.441 176.367C216.486 176.119 215.502 175.957 214.506 175.884C213.794 175.799 213.068 175.867 212.396 176.082C211.716 176.415 211.106 176.839 210.588 177.338C209.892 177.885 209.089 178.327 208.214 178.642C206.91 179.125 205.457 179.304 204.272 179.961C203.947 180.125 203.674 180.354 203.477 180.628C203.235 181.13 203.186 181.685 203.34 182.212C203.461 183.443 203.861 184.643 204.518 185.748C205.169 186.593 205.968 187.35 206.887 187.994L208.86 189.525C209.245 189.879 209.708 190.168 210.222 190.375C210.136 189.844 211.314 189.196 211.686 188.747Z" fill="black"/>
<path d="M211.686 188.51L214.644 184.936C215.049 184.389 215.555 183.9 216.143 183.487C216.439 183.281 216.789 183.138 217.164 183.067C217.538 182.997 217.927 183.001 218.299 183.081C218.727 183.229 219.125 183.433 219.478 183.685C220.582 184.366 221.943 184.868 223.287 184.651C224.632 184.434 225.776 183.511 226.754 182.627C227.566 181.898 228.442 181.004 228.218 180.019C228.093 179.643 227.856 179.3 227.531 179.022C227.206 178.744 226.803 178.541 226.359 178.43C225.474 178.21 224.569 178.048 223.653 177.947C221.497 177.589 219.546 176.638 217.441 176.102C216.486 175.853 215.502 175.691 214.506 175.619C213.794 175.534 213.068 175.602 212.396 175.817C211.716 176.15 211.106 176.574 210.588 177.072C209.892 177.62 209.089 178.061 208.214 178.377C206.91 178.86 205.457 179.038 204.272 179.695C203.946 179.861 203.673 180.091 203.477 180.367C203.235 180.869 203.186 181.424 203.34 181.951C203.461 183.182 203.861 184.383 204.518 185.487C205.169 186.332 205.968 187.089 206.887 187.733L208.86 189.264C209.245 189.619 209.708 189.907 210.222 190.114C210.136 189.607 211.314 188.96 211.686 188.51Z" fill="#333333"/>
</g>
<defs>
<linearGradient id="paint0_linear" x1="114.135" y1="61.6579" x2="114.135" y2="-0.000370694" gradientUnits="userSpaceOnUse">
<stop stop-color="#808080" stop-opacity="0.25"/>
<stop offset="0.54" stop-color="#808080" stop-opacity="0.12"/>
<stop offset="1" stop-color="#808080" stop-opacity="0.1"/>
</linearGradient>
<linearGradient id="paint1_linear" x1="963.896" y1="132.081" x2="963.896" y2="131.814" gradientUnits="userSpaceOnUse">
<stop stop-color="#808080" stop-opacity="0.25"/>
<stop offset="0.54" stop-color="#808080" stop-opacity="0.12"/>
<stop offset="1" stop-color="#808080" stop-opacity="0.1"/>
</linearGradient>
<linearGradient id="paint2_linear" x1="227069" y1="78462.1" x2="227069" y2="14740.6" gradientUnits="userSpaceOnUse">
<stop stop-color="#808080" stop-opacity="0.25"/>
<stop offset="0.54" stop-color="#808080" stop-opacity="0.12"/>
<stop offset="1" stop-color="#808080" stop-opacity="0.1"/>
</linearGradient>
<linearGradient id="paint3_linear" x1="45216.2" y1="76348.4" x2="45216.2" y2="54592.4" gradientUnits="userSpaceOnUse">
<stop stop-color="#808080" stop-opacity="0.25"/>
<stop offset="0.54" stop-color="#808080" stop-opacity="0.12"/>
<stop offset="1" stop-color="#808080" stop-opacity="0.1"/>
</linearGradient>
<linearGradient id="paint4_linear" x1="29126.3" y1="67284.6" x2="35539.2" y2="67284.6" gradientUnits="userSpaceOnUse">
<stop stop-color="#808080" stop-opacity="0.25"/>
<stop offset="0.54" stop-color="#808080" stop-opacity="0.12"/>
<stop offset="1" stop-color="#808080" stop-opacity="0.1"/>
</linearGradient>
<clipPath id="clip0">
<rect width="528" height="283" fill="white"/>
</clipPath>
</defs>
</svg>
